<?xml version="1.0" encoding="UTF-8" standalone="no"?>
<!DOCTYPE svg PUBLIC "-//W3C//DTD SVG 1.1//EN" "http://www.w3.org/Graphics/SVG/1.1/DTD/svg11.dtd">
<svg xmlns="http://www.w3.org/2000/svg" version="1.1" viewBox="0 0 1024 1024">
<g stroke-width="2.00" fill="none" stroke-linecap="butt">
<path stroke="#ffe190" vector-effect="non-scaling-stroke" d="
  M 382.14 168.26
  Q 378.87 190.86 376.21 213.81
  C 373.15 240.21 406.95 245.67 411.61 222.79
  C 412.89 216.50 410.56 210.47 407.20 205.30
  Q 395.12 186.73 383.21 168.03
  Q 382.37 166.71 382.14 168.26"
/>
<path stroke="#ffd59e" vector-effect="non-scaling-stroke" d="
  M 527.73 207.47
  Q 526.73 208.86 526.62 210.35
  L 525.77 222.50
  Q 525.68 223.77 526.58 222.83
  C 529.05 220.24 534.97 214.38 535.33 210.83
  C 535.73 206.85 530.78 203.25 527.73 207.47"
/>
<path stroke="#ffe190" vector-effect="non-scaling-stroke" d="
  M 482.81 244.49
  C 485.26 240.37 483.44 235.92 481.28 232.26
  Q 476.28 223.79 471.01 215.38
  Q 470.39 214.39 470.35 215.56
  Q 469.94 226.71 470.67 237.30
  C 471.06 243.00 472.92 247.65 479.45 246.73
  Q 481.66 246.41 482.81 244.49"
/>
<path stroke="#ffe190" vector-effect="non-scaling-stroke" d="
  M 729.28 249.89
  C 701.45 269.73 745.30 306.87 759.56 267.06
  Q 767.09 246.04 774.05 224.80
  Q 774.36 223.85 773.49 224.34
  Q 754.16 235.21 734.90 246.37
  Q 731.30 248.45 729.28 249.89"
/>
<path stroke="#fc9e8f" vector-effect="non-scaling-stroke" d="
  M 643.65 234.34
  C 636.28 230.71 624.15 243.97 636.06 247.97
  A 1.57 1.55 45.3 0 0 637.02 247.98
  Q 642.46 246.31 644.92 241.41
  C 646.15 238.97 646.41 235.70 643.65 234.34"
/>
<path stroke="#ffe190" vector-effect="non-scaling-stroke" d="
  M 274.93 290.79
  C 278.03 300.49 281.74 312.87 294.76 312.49
  C 302.71 312.26 309.29 306.93 311.39 299.35
  C 313.91 290.31 308.30 282.63 300.88 277.84
  Q 282.87 266.23 264.83 254.63
  Q 263.68 253.89 264.06 255.20
  Q 269.25 272.99 274.93 290.79"
/>
<path stroke="#ffd59e" vector-effect="non-scaling-stroke" d="
  M 333.57 259.56
  C 330.89 265.48 338.93 269.08 343.38 268.81
  A 0.62 0.59 -88.1 0 0 343.93 268.26
  Q 344.72 261.45 339.59 258.22
  C 337.59 256.95 334.57 257.35 333.57 259.56"
/>
<path stroke="#ffeecf" vector-effect="non-scaling-stroke" d="
  M 273.79 451.75
  Q 269.58 467.23 270.03 482.37"
/>
<path stroke="#fff4df" vector-effect="non-scaling-stroke" d="
  M 270.03 482.37
  Q 269.26 501.51 281.34 514.65"
/>
<path stroke="#d7b77f" vector-effect="non-scaling-stroke" d="
  M 281.34 514.65
  Q 280.78 515.64 280.71 516.50"
/>
<path stroke="#ffe483" vector-effect="non-scaling-stroke" d="
  M 280.71 516.50
  C 269.52 523.99 251.91 526.90 238.72 527.45
  Q 237.53 527.50 238.41 528.31
  C 253.83 542.42 275.76 551.62 296.05 555.59
  A 0.42 0.38 18.6 0 1 296.36 556.15
  Q 295.84 557.15 294.50 557.04"
/>
<path stroke="#fef1c8" vector-effect="non-scaling-stroke" d="
  M 294.50 557.04
  Q 292.51 557.13 291.25 558.71"
/>
<path stroke="#ffe483" vector-effect="non-scaling-stroke" d="
  M 291.25 558.71
  C 280.13 564.38 247.80 580.59 253.79 597.50"
/>
<path stroke="#ffde8b" vector-effect="non-scaling-stroke" d="
  M 253.79 597.50
  L 253.79 598.25"
/>
<path stroke="#a6848d" vector-effect="non-scaling-stroke" d="
  M 253.79 598.25
  L 251.50 602.71"
/>
<path stroke="#b28794" vector-effect="non-scaling-stroke" d="
  M 251.50 602.71
  C 233.17 638.10 275.42 664.43 303.27 671.94"
/>
<path stroke="#b88b97" vector-effect="non-scaling-stroke" d="
  M 303.27 671.94
  L 305.04 672.75"
/>
<path stroke="#eae69c" vector-effect="non-scaling-stroke" d="
  M 305.04 672.75
  L 304.96 673.25"
/>
<path stroke="#e3e093" vector-effect="non-scaling-stroke" d="
  M 304.96 673.25
  C 291.32 673.33 275.80 679.46 270.21 692.75"
/>
<path stroke="#fef0d7" vector-effect="non-scaling-stroke" d="
  M 270.21 692.75
  Q 268.94 696.91 268.79 701.25"
/>
<path stroke="#ffbf99" vector-effect="non-scaling-stroke" d="
  M 268.79 701.25
  C 265.30 730.96 304.81 747.15 327.87 750.49
  Q 334.56 751.46 347.81 751.47
  Q 508.43 751.56 669.05 751.46
  Q 685.84 751.45 689.06 751.23
  C 712.98 749.60 745.75 738.78 755.40 713.62
  Q 757.78 707.42 756.46 701.00"
/>
<path stroke="#fff3d7" vector-effect="non-scaling-stroke" d="
  M 756.46 701.00
  Q 757.29 696.50 755.25 692.46"
/>
<path stroke="#dede94" vector-effect="non-scaling-stroke" d="
  M 755.25 692.46
  Q 750.42 681.12 738.19 676.57
  Q 726.61 672.26 715.23 673.74"
/>
<path stroke="#a9858f" vector-effect="non-scaling-stroke" d="
  M 715.23 673.74
  C 736.40 667.77 759.45 658.61 771.66 638.68
  C 792.16 605.23 753.50 577.92 725.94 570.54"
/>
<path stroke="#ffe483" vector-effect="non-scaling-stroke" d="
  M 725.94 570.54
  Q 729.02 568.86 732.40 567.87
  Q 738.72 566.02 739.05 565.90
  C 760.40 558.45 782.76 552.94 805.32 550.71
  Q 806.82 550.56 805.72 549.53
  C 788.23 533.19 767.89 524.04 744.70 517.78"
/>
<path stroke="#e0c07f" vector-effect="non-scaling-stroke" d="
  M 744.70 517.78
  Q 744.90 515.78 744.46 514.50"
/>
<path stroke="#fff4df" vector-effect="non-scaling-stroke" d="
  M 744.46 514.50
  C 753.25 504.88 756.40 493.34 756.29 480.50"
/>
<path stroke="#ffeecf" vector-effect="non-scaling-stroke" d="
  M 756.29 480.50
  Q 756.37 465.44 752.56 451.47"
/>
<path stroke="#ffddaf" vector-effect="non-scaling-stroke" d="
  M 752.56 451.47
  Q 750.82 443.08 747.94 435.55
  C 730.03 388.78 692.91 350.73 649.29 326.72
  C 595.46 297.09 532.21 288.53 471.75 296.55
  C 385.98 307.92 297.15 363.80 273.79 451.75"
/>
<path stroke="#ffcd80" vector-effect="non-scaling-stroke" d="
  M 752.56 451.47
  Q 612.41 451.48 472.31 451.38
  Q 405.16 451.33 338.00 451.74"
/>
<path stroke="#ffae55" vector-effect="non-scaling-stroke" d="
  M 338.00 451.74
  C 339.93 444.08 334.60 447.06 330.97 446.97
  Q 327.35 446.87 323.72 447.35
  A 0.75 0.57 -3.4 0 0 323.07 447.90
  L 322.91 450.26
  A 0.64 0.60 5.4 0 0 323.48 450.90
  L 329.25 451.54"
/>
<path stroke="#ffcd80" vector-effect="non-scaling-stroke" d="
  M 329.25 451.54
  Q 322.16 451.95 315.06 451.75
  Q 294.43 451.17 273.79 451.75"
/>
<path stroke="#ffe4b0" vector-effect="non-scaling-stroke" d="
  M 756.29 480.50
  C 756.52 481.58 756.28 482.17 755.10 482.18
  C 644.59 482.74 534.08 482.24 423.56 482.25
  A 1.75 1.30 55.3 0 1 422.67 481.95
  Q 421.22 480.92 419.79 481.75"
/>
<path stroke="#b27057" vector-effect="non-scaling-stroke" d="
  M 419.79 481.75
  Q 419.50 480.48 418.57 479.63
  A 1.38 1.17 -20.3 0 0 417.69 479.31
  Q 410.87 479.37 404.78 482.02"
/>
<path stroke="#ffe4b0" vector-effect="non-scaling-stroke" d="
  M 404.78 482.02
  Q 402.28 481.71 399.74 481.92
  Q 395.67 482.27 394.73 482.27
  Q 332.40 482.62 270.03 482.37"
/>
<path stroke="#ffbf75" vector-effect="non-scaling-stroke" d="
  M 338.00 451.74
  L 329.25 451.54"
/>
<path stroke="#b27666" vector-effect="non-scaling-stroke" d="
  M 419.79 481.75
  C 419.65 485.56 411.14 486.16 408.35 486.41
  C 405.27 486.69 404.33 484.77 404.78 482.02"
/>
<path stroke="#e0b660" vector-effect="non-scaling-stroke" d="
  M 744.46 514.50
  Q 738.25 516.76 736.75 516.75
  Q 713.62 516.53 690.50 517.04"
/>
<path stroke="#d2ab60" vector-effect="non-scaling-stroke" d="
  M 690.50 517.04
  L 672.50 516.79"
/>
<path stroke="#ebba63" vector-effect="non-scaling-stroke" d="
  M 672.50 516.79
  L 643.71 517.00"
/>
<path stroke="#df816a" vector-effect="non-scaling-stroke" d="
  M 643.71 517.00
  Q 596.81 516.58 549.92 516.74
  C 546.78 516.75 540.85 517.26 536.25 516.79"
/>
<path stroke="#ed9a69" vector-effect="non-scaling-stroke" d="
  M 536.25 516.79
  L 426.96 516.77"
/>
<path stroke="#df816a" vector-effect="non-scaling-stroke" d="
  M 426.96 516.77
  L 361.79 517.00"
/>
<path stroke="#e8b960" vector-effect="non-scaling-stroke" d="
  M 361.79 517.00
  Q 353.66 516.39 345.91 516.98"
/>
<path stroke="#caa160" vector-effect="non-scaling-stroke" d="
  M 345.91 516.98
  L 331.75 516.79"
/>
<path stroke="#d7ad60" vector-effect="non-scaling-stroke" d="
  M 331.75 516.79
  Q 311.50 516.59 291.25 517.06
  Q 287.20 517.15 281.34 514.65"
/>
<path stroke="#b47800" vector-effect="non-scaling-stroke" d="
  M 692.75 530.50
  L 663.00 530.46"
/>
<path stroke="#b27001" vector-effect="non-scaling-stroke" d="
  M 345.91 516.98
  L 335.25 530.21"
/>
<path stroke="#b67104" vector-effect="non-scaling-stroke" d="
  M 334.29 530.75
  L 327.50 530.37"
/>
<path stroke="#cb510e" vector-effect="non-scaling-stroke" d="
  M 643.71 517.00
  L 631.75 529.96"
/>
<path stroke="#df6b16" vector-effect="non-scaling-stroke" d="
  M 631.75 529.96
  L 630.31 530.86"
/>
<path stroke="#de251e" vector-effect="non-scaling-stroke" d="
  M 630.31 530.86
  Q 589.98 530.66 549.69 530.63
  Q 543.73 530.63 537.79 531.00"
/>
<path stroke="#df491a" vector-effect="non-scaling-stroke" d="
  M 537.79 531.00
  L 537.50 530.46"
/>
<path stroke="#e0a604" vector-effect="non-scaling-stroke" d="
  M 744.70 517.78
  Q 744.36 519.73 742.44 522.19
  C 736.93 529.23 731.40 530.46 722.06 530.48
  Q 707.40 530.52 692.75 530.50"
/>
<path stroke="#b37700" vector-effect="non-scaling-stroke" d="
  M 692.75 530.50
  L 693.16 530.10
  A 1.16 0.69 72.5 0 0 693.37 529.19
  Q 692.54 522.97 690.50 517.04"
/>
<path stroke="#be7a04" vector-effect="non-scaling-stroke" d="
  M 672.50 516.79
  Q 668.94 524.44 663.00 530.46"
/>
<path stroke="#cd8704" vector-effect="non-scaling-stroke" d="
  M 663.00 530.46
  L 662.54 530.75"
/>
<path stroke="#eba40f" vector-effect="non-scaling-stroke" d="
  M 662.54 530.75
  L 631.75 529.96"
/>
<path stroke="#c7500b" vector-effect="non-scaling-stroke" d="
  M 361.79 517.00
  Q 359.54 524.36 354.19 529.94
  Q 353.86 530.27 354.04 530.75"
/>
<path stroke="#e75c14" vector-effect="non-scaling-stroke" d="
  M 354.04 530.75
  L 353.75 530.96"
/>
<path stroke="#a26400" vector-effect="non-scaling-stroke" d="
  M 331.75 516.79
  Q 330.41 523.82 327.50 530.37"
/>
<path stroke="#c37d04" vector-effect="non-scaling-stroke" d="
  M 327.50 530.37
  L 326.50 530.79"
/>
<path stroke="#d79d04" vector-effect="non-scaling-stroke" d="
  M 326.50 530.79
  Q 311.31 530.04 299.56 530.19
  Q 284.72 530.37 280.71 516.50"
/>
<path stroke="#cd3114" vector-effect="non-scaling-stroke" d="
  M 426.96 516.77
  Q 422.66 523.03 422.75 530.75"
/>
<path stroke="#de251e" vector-effect="non-scaling-stroke" d="
  M 422.75 530.75
  L 354.04 530.75"
/>
<path stroke="#cd3114" vector-effect="non-scaling-stroke" d="
  M 536.25 516.79
  Q 537.49 523.57 537.50 530.46"
/>
<path stroke="#ed6219" vector-effect="non-scaling-stroke" d="
  M 537.50 530.46
  L 422.75 530.75"
/>
<path stroke="#aa6b14" vector-effect="non-scaling-stroke" d="
  M 725.94 570.54
  C 705.14 578.11 684.70 587.28 663.46 593.50"
/>
<path stroke="#a56911" vector-effect="non-scaling-stroke" d="
  M 663.46 593.50
  C 650.58 596.18 637.26 595.56 626.10 588.20"
/>
<path stroke="#e1a704" vector-effect="non-scaling-stroke" d="
  M 626.10 588.20
  C 639.00 567.28 662.08 555.57 682.09 542.79
  C 686.82 539.76 691.39 535.90 692.75 530.50"
/>
<path stroke="#87470d" vector-effect="non-scaling-stroke" d="
  M 626.10 588.20
  Q 618.49 582.90 615.25 573.03"
/>
<path stroke="#eba908" vector-effect="non-scaling-stroke" d="
  M 326.50 530.79
  Q 326.64 530.93 326.70 531.12
  A 0.78 0.54 -37.4 0 1 326.49 531.76
  C 323.84 534.72 322.58 538.23 320.27 541.34
  A 0.79 0.44 -44.3 0 0 320.10 541.90
  Q 320.18 542.20 320.62 541.89
  C 322.60 540.48 334.19 532.45 334.29 530.75"
/>
<path stroke="#ca9104" vector-effect="non-scaling-stroke" d="
  M 334.29 530.75
  L 335.25 530.21"
/>
<path stroke="#e8a805" vector-effect="non-scaling-stroke" d="
  M 335.25 530.21
  L 353.40 530.68
  A 0.34 0.18 -3.3 0 1 353.68 530.81
  L 353.75 530.96"
/>
<path stroke="#fe7d18" vector-effect="non-scaling-stroke" d="
  M 353.75 530.96
  C 336.44 549.85 312.61 562.42 289.31 572.32
  Q 278.30 577.00 273.99 579.72
  C 268.76 583.02 260.42 590.58 266.58 596.06
  C 273.98 602.64 309.83 592.64 319.87 590.20
  C 339.88 585.33 361.83 580.13 382.31 579.12
  Q 428.37 576.86 460.14 609.48"
/>
<path stroke="#ffc410" vector-effect="non-scaling-stroke" d="
  M 460.14 609.48
  Q 460.87 611.17 462.26 612.53
  C 463.95 614.18 464.79 615.72 466.22 617.38
  Q 466.65 617.87 466.06 617.81
  C 465.21 617.72 464.44 615.67 464.02 617.20
  A 0.85 0.72 -85.8 0 1 463.44 617.79
  L 461.54 618.16
  A 1.03 0.83 57.4 0 1 460.71 617.88
  Q 460.09 617.29 459.80 617.94
  A 0.33 0.30 -58.3 0 1 459.30 618.08
  Q 456.63 615.59 453.24 614.16
  A 1.49 1.25 1.1 0 1 452.54 613.55
  L 452.21 612.94
  A 1.76 1.47 85.4 0 0 451.54 612.26
  Q 447.82 610.31 444.69 607.51
  C 443.59 606.53 442.08 606.06 441.28 605.23
  Q 439.01 602.86 435.80 602.27
  Q 435.33 602.18 434.93 601.86
  C 433.20 600.43 430.92 600.50 429.43 600.04
  Q 420.46 597.21 409.00 595.99
  C 400.42 595.08 392.10 593.95 384.63 595.35
  C 378.73 596.46 372.25 596.42 367.20 597.18
  C 357.65 598.62 348.20 599.90 338.72 601.80
  C 333.44 602.85 327.18 603.31 321.45 604.59
  C 319.79 604.96 318.17 604.61 316.46 605.01
  Q 309.86 606.58 303.09 606.77
  C 300.78 606.84 298.42 607.46 295.81 607.58
  Q 286.52 608.04 278.97 607.85
  C 275.20 607.76 271.27 606.43 267.21 606.10
  A 1.82 1.71 63.9 0 1 266.31 605.76
  Q 264.03 604.12 261.29 603.59
  A 1.81 1.29 -9.6 0 1 260.44 603.18
  L 255.16 598.06
  A 1.47 0.79 -7.7 0 0 254.33 597.75
  Q 254.01 597.72 253.79 597.50"
/>
<path stroke="#fed74d" vector-effect="non-scaling-stroke" d="
  M 291.25 558.71
  Q 293.45 558.86 294.50 557.04"
/>
<path stroke="#fe5523" vector-effect="non-scaling-stroke" d="
  M 422.75 530.75
  L 422.79 534.00"
/>
<path stroke="#df2a20" vector-effect="non-scaling-stroke" d="
  M 422.79 534.00
  Q 421.98 542.53 422.48 544.99
  C 431.27 588.24 479.20 605.58 514.55 580.80
  Q 536.03 565.74 537.60 538.58"
/>
<path stroke="#fe5523" vector-effect="non-scaling-stroke" d="
  M 537.60 538.58
  Q 537.02 534.69 537.79 531.00"
/>
<path stroke="#e04e1c" vector-effect="non-scaling-stroke" d="
  M 537.60 538.58
  Q 535.91 546.38 532.47 553.37
  C 508.12 602.96 424.88 594.48 422.79 534.00"
/>
<path stroke="#e1a20c" vector-effect="non-scaling-stroke" d="
  M 662.54 530.75
  C 647.10 545.75 629.88 557.30 615.25 573.03"
/>
<path stroke="#a56318" vector-effect="non-scaling-stroke" d="
  M 615.25 573.03
  C 596.47 596.59 598.49 617.37 611.20 643.81
  Q 617.05 655.99 623.99 672.79
  Q 624.39 673.74 625.00 673.54"
/>
<path stroke="#debe21" vector-effect="non-scaling-stroke" d="
  M 625.00 673.54
  Q 624.73 674.81 625.02 675.49
  Q 628.53 683.88 628.04 693.00"
/>
<path stroke="#ffd364" vector-effect="non-scaling-stroke" d="
  M 628.04 693.00
  Q 627.01 695.78 627.50 698.71"
/>
<path stroke="#ea8d1b" vector-effect="non-scaling-stroke" d="
  M 627.50 698.71
  Q 627.43 698.77 627.18 698.74
  A 0.40 0.37 12.9 0 0 626.76 698.98
  C 623.23 708.73 615.73 713.05 605.38 712.96
  Q 589.18 712.81 578.57 699.62"
/>
<path stroke="#ffbc49" vector-effect="non-scaling-stroke" d="
  M 578.57 699.62
  Q 576.54 696.29 574.40 692.84
  Q 574.10 692.36 573.54 692.50"
/>
<path stroke="#c9a61e" vector-effect="non-scaling-stroke" d="
  M 573.54 692.50
  Q 569.31 682.63 563.30 673.66"
/>
<path stroke="#a7641a" vector-effect="non-scaling-stroke" d="
  M 563.30 673.66
  C 549.72 658.66 528.98 657.95 512.93 654.36
  Q 488.91 648.99 470.56 632.68
  C 454.15 618.11 440.20 602.33 416.27 598.23
  C 402.29 595.83 384.84 596.34 369.97 598.35
  C 347.07 601.45 322.14 606.00 302.93 608.37
  C 289.78 609.99 261.62 612.56 253.79 598.25"
/>
<path stroke="#fe781f" vector-effect="non-scaling-stroke" d="
  M 460.14 609.48
  C 472.70 619.87 485.18 635.21 501.87 638.64
  C 511.16 640.54 520.56 638.94 529.68 637.98
  C 544.95 636.38 562.65 639.19 575.54 647.80
  Q 580.38 651.03 582.69 654.31
  Q 589.54 664.07 596.69 673.59
  Q 598.59 676.12 601.24 677.65
  Q 604.04 679.26 604.00 676.03
  C 603.96 673.17 603.42 670.58 602.02 667.90
  C 596.15 656.66 588.29 643.39 584.50 629.47
  C 577.72 604.52 584.03 582.01 600.26 562.26
  Q 612.35 547.55 630.31 530.86"
/>
<path stroke="#896525" vector-effect="non-scaling-stroke" d="
  M 715.23 673.74
  Q 703.00 674.17 690.77 673.18"
/>
<path stroke="#4f0a1c" vector-effect="non-scaling-stroke" d="
  M 690.77 673.18
  Q 660.43 671.72 630.36 672.46
  A 0.69 0.69 87.4 0 1 629.66 671.82
  Q 629.13 665.49 627.65 659.36
  C 625.84 651.82 621.44 643.03 618.88 635.09
  Q 615.49 624.56 617.37 613.27"
/>
<path stroke="#5b0d23" vector-effect="non-scaling-stroke" d="
  M 617.37 613.27
  L 661.54 661.34
  A 1.67 1.66 -43.3 0 0 663.92 661.40
  Q 702.65 623.78 741.31 585.81
  Q 743.28 583.86 744.80 581.53
  A 1.27 1.13 -60.0 0 0 744.44 579.78
  Q 740.31 577.76 736.01 576.02
  C 732.51 574.60 730.77 576.04 727.71 576.80
  Q 720.92 578.50 714.44 581.10
  C 702.29 585.98 690.10 590.26 677.97 595.00
  C 668.10 598.87 658.69 600.42 648.03 599.10
  Q 642.77 598.45 637.51 598.14
  Q 637.12 598.11 636.61 597.81
  L 632.00 595.04"
/>
<path stroke="#4f0a1c" vector-effect="non-scaling-stroke" d="
  M 632.00 595.04
  Q 633.83 595.21 635.48 595.90
  C 638.97 597.35 640.54 596.47 643.69 597.06
  Q 653.00 598.83 661.97 595.53
  A 1.03 0.77 -88.7 0 0 662.50 594.85
  Q 662.70 594.07 663.46 593.50"
/>
<path stroke="#560b20" vector-effect="non-scaling-stroke" d="
  M 632.00 595.04
  L 627.14 592.71
  Q 625.23 591.80 624.25 593.03
  Q 617.13 601.95 617.37 613.27"
/>
<path stroke="#846322" vector-effect="non-scaling-stroke" d="
  M 690.77 673.18
  L 625.00 673.54"
/>
<path stroke="#ded36d" vector-effect="non-scaling-stroke" d="
  M 755.25 692.46
  C 720.44 692.75 685.61 692.48 650.81 693.08
  Q 639.43 693.27 628.04 693.00"
/>
<path stroke="#c9a450" vector-effect="non-scaling-stroke" d="
  M 573.54 692.50
  L 572.00 692.46"
/>
<path stroke="#704c21" vector-effect="non-scaling-stroke" d="
  M 563.30 673.66
  L 478.00 673.46"
/>
<path stroke="#580c21" vector-effect="non-scaling-stroke" d="
  M 478.00 673.46
  C 481.40 665.42 483.31 661.02 489.03 656.77
  A 0.50 0.50 -51.1 0 0 488.94 655.91
  C 475.96 650.08 466.19 640.04 455.34 631.16
  C 424.31 605.78 379.09 606.79 341.75 610.21"
/>
<path stroke="#601126" vector-effect="non-scaling-stroke" d="
  M 341.75 610.21
  Q 330.81 610.68 317.31 612.31
  Q 296.23 614.87 274.00 613.21"
/>
<path stroke="#5a0d23" vector-effect="non-scaling-stroke" d="
  M 274.00 613.21
  L 269.52 612.98
  A 1.35 0.91 -13.1 0 1 268.68 612.66
  Q 266.56 610.56 263.73 609.68
  A 1.45 1.04 33.7 0 0 262.77 609.71
  L 261.74 610.21
  A 1.18 0.81 -39.1 0 1 260.86 610.28
  L 256.51 608.39
  A 1.07 0.79 -89.6 0 1 256.00 607.69
  Q 255.78 606.65 254.73 606.36
  A 0.69 0.63 6.6 0 1 254.23 605.78
  Q 254.09 603.10 251.50 602.71"
/>
<path stroke="#ffb472" vector-effect="non-scaling-stroke" d="
  M 756.46 701.00
  Q 755.01 699.25 753.57 699.26
  C 711.84 699.32 670.01 699.65 628.29 699.00"
/>
<path stroke="#eaa268" vector-effect="non-scaling-stroke" d="
  M 628.29 699.00
  L 627.50 698.71"
/>
<path stroke="#ea8b4d" vector-effect="non-scaling-stroke" d="
  M 578.57 699.62
  Q 567.10 698.95 555.39 699.28"
/>
<path stroke="#ff9d57" vector-effect="non-scaling-stroke" d="
  M 555.39 699.28
  L 552.10 698.72"
/>
<path stroke="#ffd195" vector-effect="non-scaling-stroke" d="
  M 552.10 698.72
  Q 547.07 695.04 540.72 693.54"
/>
<path stroke="#9b9727" vector-effect="non-scaling-stroke" d="
  M 477.81 673.49
  Q 478.77 674.99 479.61 676.49
  Q 480.53 678.12 481.87 679.08
  C 494.19 687.94 506.83 689.36 522.56 689.55
  Q 523.27 689.55 524.27 689.78
  C 528.37 690.70 532.89 690.43 537.08 690.81
  C 539.75 691.06 542.15 692.30 545.94 691.97
  Q 555.22 691.15 570.30 691.92
  C 570.76 691.95 571.53 692.31 572.00 692.46"
/>
<path stroke="#d2ad51" vector-effect="non-scaling-stroke" d="
  M 572.00 692.46
  C 563.28 692.73 554.18 693.47 545.50 692.67
  Q 543.04 692.45 540.72 693.54"
/>
<path stroke="#d2c46c" vector-effect="non-scaling-stroke" d="
  M 540.72 693.54
  Q 531.85 692.81 529.19 692.81
  Q 479.97 692.80 430.75 692.79"
/>
<path stroke="#d2ad51" vector-effect="non-scaling-stroke" d="
  M 430.75 692.79
  L 429.75 692.71"
/>
<path stroke="#7a4e26" vector-effect="non-scaling-stroke" d="
  M 478.00 673.46
  Q 477.88 673.50 477.81 673.49"
/>
<path stroke="#835727" vector-effect="non-scaling-stroke" d="
  M 477.81 673.49
  L 408.50 673.54"
/>
<path stroke="#75431d" vector-effect="non-scaling-stroke" d="
  M 408.50 673.54
  L 406.00 673.54"
/>
<path stroke="#b16922" vector-effect="non-scaling-stroke" d="
  M 406.00 673.54
  L 373.50 673.27"
/>
<path stroke="#6a132b" vector-effect="non-scaling-stroke" d="
  M 373.50 673.27
  Q 385.73 671.30 400.68 672.87
  Q 402.30 673.04 402.45 671.54
  A 1.20 0.98 30.0 0 0 402.12 670.67
  Q 362.72 629.48 346.84 613.17
  Q 344.93 611.21 341.75 610.21"
/>
<path stroke="#6b142d" vector-effect="non-scaling-stroke" d="
  M 274.00 613.21
  C 267.92 613.66 261.35 613.36 255.61 611.22
  Q 253.90 610.59 252.18 611.46
  A 1.18 1.10 86.0 0 0 251.59 612.19
  Q 249.68 618.98 254.08 623.67
  Q 269.34 639.96 296.26 666.09
  A 0.67 0.34 36.2 0 1 296.50 666.56
  L 296.47 666.83
  A 0.82 0.37 -77.7 0 0 296.62 667.55
  L 303.27 671.94"
/>
<path stroke="#b86e27" vector-effect="non-scaling-stroke" d="
  M 373.50 673.27
  L 310.80 673.37"
/>
<path stroke="#a47335" vector-effect="non-scaling-stroke" d="
  M 310.80 673.37
  L 305.04 672.75"
/>
<path stroke="#ea6d2a" vector-effect="non-scaling-stroke" d="
  M 555.39 699.28
  Q 562.60 705.59 563.82 707.18
  C 569.05 713.96 574.81 722.27 580.41 727.33
  C 591.50 737.36 606.17 740.51 620.93 738.50
  C 647.08 734.94 638.88 714.34 628.42 700.05
  A 1.04 0.85 -64.8 0 1 628.25 699.37
  L 628.29 699.00"
/>
<path stroke="#ea6d2a" vector-effect="non-scaling-stroke" d="
  M 328.17 715.78
  Q 335.79 727.58 349.45 735.01
  Q 368.41 745.34 388.75 744.34
  C 406.63 743.46 438.50 732.61 438.20 709.79
  C 438.15 706.27 436.63 702.54 435.50 699.04"
/>
<path stroke="#ffb472" vector-effect="non-scaling-stroke" d="
  M 552.10 698.72
  Q 532.88 699.24 513.81 699.15
  C 487.87 699.03 461.95 699.44 436.00 698.96"
/>
<path stroke="#ffd195" vector-effect="non-scaling-stroke" d="
  M 430.75 692.79
  L 434.53 698.06
  A 1.45 0.44 60.2 0 0 435.21 698.70
  L 436.00 698.96"
/>
<path stroke="#ff9d57" vector-effect="non-scaling-stroke" d="
  M 436.00 698.96
  L 435.50 699.04"
/>
<path stroke="#ea8b4d" vector-effect="non-scaling-stroke" d="
  M 435.50 699.04
  L 418.79 699.00"
/>
<path stroke="#968c1e" vector-effect="non-scaling-stroke" d="
  M 408.50 673.54
  Q 408.01 674.02 408.59 674.40
  C 410.96 675.98 430.86 690.77 429.75 692.71"
/>
<path stroke="#c39947" vector-effect="non-scaling-stroke" d="
  M 429.75 692.71
  L 419.29 692.50"
/>
<path stroke="#c39e19" vector-effect="non-scaling-stroke" d="
  M 406.00 673.54
  C 411.76 677.86 419.31 683.93 419.29 692.50"
/>
<path stroke="#ffbf4c" vector-effect="non-scaling-stroke" d="
  M 419.29 692.50
  Q 418.02 695.68 418.79 699.00"
/>
<path stroke="#ea901f" vector-effect="non-scaling-stroke" d="
  M 418.79 699.00
  C 405.26 729.45 365.39 733.37 339.19 717.88
  C 335.32 715.60 331.21 712.19 327.29 709.25"
/>
<path stroke="#ffb82e" vector-effect="non-scaling-stroke" d="
  M 327.29 709.25
  L 317.61 698.65"
/>
<path stroke="#ffd367" vector-effect="non-scaling-stroke" d="
  M 317.61 698.65
  L 316.96 696.25"
/>
<path stroke="#ebc92c" vector-effect="non-scaling-stroke" d="
  M 310.80 673.37
  L 313.44 690.94
  A 1.27 1.09 16.7 0 0 313.94 691.72
  Q 316.31 693.40 316.96 696.25"
/>
<path stroke="#ead875" vector-effect="non-scaling-stroke" d="
  M 316.96 696.25
  L 315.25 693.69
  A 1.10 0.79 69.2 0 0 314.51 693.20
  L 305.25 692.71"
/>
<path stroke="#cfc831" vector-effect="non-scaling-stroke" d="
  M 305.25 692.71
  L 306.36 691.13
  A 1.37 1.14 -35.1 0 0 306.60 690.24
  Q 305.57 682.74 306.43 675.25
  Q 306.63 673.55 304.96 673.25"
/>
<path stroke="#ea842f" vector-effect="non-scaling-stroke" d="
  M 327.29 709.25
  Q 329.62 711.70 328.17 715.78"
/>
<path stroke="#ff9639" vector-effect="non-scaling-stroke" d="
  M 328.17 715.78
  Q 319.66 708.40 313.63 701.87
  Q 311.24 699.28 307.69 699.27
  L 288.75 699.21"
/>
<path stroke="#ffc777" vector-effect="non-scaling-stroke" d="
  M 317.61 698.65
  Q 317.91 699.12 317.64 699.45
  A 1.12 0.62 13.2 0 1 316.75 699.70
  Q 302.78 698.38 288.75 699.21"
/>
<path stroke="#ffb172" vector-effect="non-scaling-stroke" d="
  M 288.75 699.21
  Q 280.00 699.13 271.25 699.45
  Q 269.30 699.52 268.79 701.25"
/>
<path stroke="#e3d26b" vector-effect="non-scaling-stroke" d="
  M 305.25 692.71
  L 270.21 692.75"
/>
<path stroke="#ffe190" vector-effect="non-scaling-stroke" d="
  M 786.78 371.20
  C 802.33 383.80 823.53 369.81 822.73 351.19
  Q 822.65 349.17 820.61 339.24
  Q 816.34 318.36 812.01 297.48
  Q 811.84 296.66 811.35 297.34
  Q 797.17 317.21 783.38 337.35
  C 775.35 349.08 775.34 361.93 786.78 371.20"
/>
<path stroke="#fc9e8f" vector-effect="non-scaling-stroke" d="
  M 245.31 397.11
  C 239.50 413.92 262.60 414.97 260.21 402.01
  Q 257.54 387.44 254.56 373.09
  Q 254.39 372.24 254.08 373.05
  Q 249.48 385.02 245.31 397.11"
/>
<path stroke="#ffdc9d" vector-effect="non-scaling-stroke" d="
  M 789.52 421.96
  C 785.74 432.16 797.12 439.41 801.58 430.18
  C 803.51 426.18 799.10 407.79 798.23 402.64
  Q 798.05 401.57 797.59 402.55
  Q 793.17 412.12 789.52 421.96"
/>
<path stroke="#ffe190" vector-effect="non-scaling-stroke" d="
  M 169.69 490.31
  C 180.69 499.28 197.25 495.09 202.58 481.73
  C 207.11 470.39 201.82 459.59 192.09 453.14
  Q 168.67 437.61 144.96 422.50
  Q 144.16 421.99 144.43 422.90
  Q 150.82 444.09 157.06 465.44
  C 159.94 475.31 162.31 484.30 169.69 490.31"
/>
<path stroke="#ffe190" vector-effect="non-scaling-stroke" d="
  M 827.44 481.99
  C 830.65 488.92 838.55 492.82 845.96 492.17
  C 853.57 491.51 858.19 487.29 863.52 481.07
  Q 879.39 462.55 894.64 443.44
  Q 894.96 443.05 894.46 443.13
  Q 870.09 446.95 845.76 451.07
  C 829.99 453.74 820.23 466.37 827.44 481.99"
/>
<path stroke="#ffc492" vector-effect="non-scaling-stroke" d="
  M 173.66 536.47
  C 168.77 551.99 190.64 553.78 187.26 539.43
  Q 184.46 527.56 181.98 515.86
  Q 181.75 514.80 181.33 515.79
  Q 176.96 525.98 173.66 536.47"
/>
<path stroke="#fca28d" vector-effect="non-scaling-stroke" d="
  M 205.49 575.50
  C 209.16 578.68 214.83 576.36 215.69 572.03
  Q 216.06 570.18 215.13 565.48
  Q 213.25 556.00 211.16 546.55
  Q 210.88 545.25 210.36 546.48
  Q 207.00 554.54 203.87 562.88
  C 201.93 568.03 201.21 571.81 205.49 575.50"
/>
<path stroke="#fc9e8f" vector-effect="non-scaling-stroke" d="
  M 820.58 619.13
  C 814.64 634.33 838.36 638.60 835.74 622.99
  Q 833.39 609.02 830.91 595.06
  Q 830.79 594.35 830.50 595.01
  Q 825.31 607.01 820.58 619.13"
/>
<path stroke="#ffaa91" vector-effect="non-scaling-stroke" d="
  M 203.44 673.56
  C 217.58 684.42 237.32 667.17 225.81 652.18
  Q 223.54 649.21 221.71 648.02
  Q 204.24 636.60 186.60 625.28
  Q 185.48 624.57 185.83 625.85
  Q 189.99 641.44 194.64 656.98
  C 196.93 664.63 198.11 669.47 203.44 673.56"
/>
<path stroke="#ffd59e" vector-effect="non-scaling-stroke" d="
  M 816.68 692.42
  C 808.65 702.54 827.01 710.78 828.26 696.75
  Q 829.00 688.49 829.11 679.96
  Q 829.11 679.46 828.76 679.80
  Q 820.26 687.93 816.68 692.42"
/>
<path stroke="#ffd59e" vector-effect="non-scaling-stroke" d="
  M 228.66 729.57
  C 230.75 731.81 234.30 731.32 234.92 728.12
  C 235.65 724.32 232.03 720.42 228.96 718.70
  A 0.47 0.47 26.5 0 0 228.30 718.92
  C 226.97 721.79 226.21 726.95 228.66 729.57"
/>
<path stroke="#dadadb" vector-effect="non-scaling-stroke" d="
  M 256.44 849.53
  Q 302.96 856.79 349.93 860.15
  C 467.82 868.61 583.71 868.67 704.24 861.87
  C 715.64 861.22 885.93 851.22 871.53 829.71
  Q 870.32 827.91 868.44 826.83
  C 856.69 820.12 842.13 817.03 828.94 814.58
  C 792.67 807.84 755.71 804.34 718.93 801.89
  C 640.45 796.65 562.32 795.27 483.69 796.03
  Q 400.33 796.84 317.27 803.96
  C 308.41 804.72 192.79 814.33 204.00 832.46
  C 209.95 842.10 245.33 847.80 256.44 849.53"
/>
<path stroke="#fedbaa" vector-effect="non-scaling-stroke" d="
  M 549.0956 330.3128
  A 2.34 2.34 0.0 0 0 547.9367 327.2131
  L 537.9817 322.6763
  A 2.34 2.34 0.0 0 0 534.8820 323.8353
  L 534.3844 324.9272
  A 2.34 2.34 0.0 0 0 535.5433 328.0269
  L 545.4983 332.5637
  A 2.34 2.34 0.0 0 0 548.5980 331.4047
  L 549.0956 330.3128"
/>
<path stroke="#aa5e35" vector-effect="non-scaling-stroke" d="
  M 493.7276 330.7381
  A 2.58 2.58 0.0 0 0 491.2579 328.0524
  L 481.2467 327.6328
  A 2.58 2.58 0.0 0 0 478.5609 330.1025
  L 478.5324 330.7819
  A 2.58 2.58 0.0 0 0 481.0021 333.4676
  L 491.0133 333.8872
  A 2.58 2.58 0.0 0 0 493.6991 331.4175
  L 493.7276 330.7381"
/>
<path stroke="#fedbaa" vector-effect="non-scaling-stroke" d="
  M 416.9568 340.8041
  A 2.23 2.23 0.0 0 0 414.2174 339.2415
  L 412.6934 339.6585
  A 2.23 2.23 0.0 0 0 411.1309 342.3979
  L 414.1232 353.3359
  A 2.23 2.23 0.0 0 0 416.8626 354.8985
  L 418.3866 354.4815
  A 2.23 2.23 0.0 0 0 419.9491 351.7421
  L 416.9568 340.8041"
/>
<path stroke="#fedbaa" vector-effect="non-scaling-stroke" d="
  M 633.0104 345.2071
  A 2.60 2.60 0.0 0 0 632.1520 341.6317
  L 631.5040 341.2346
  A 2.60 2.60 0.0 0 0 627.9287 342.0930
  L 622.6096 350.7729
  A 2.60 2.60 0.0 0 0 623.4680 354.3483
  L 624.1160 354.7454
  A 2.60 2.60 0.0 0 0 627.6913 353.8870
  L 633.0104 345.2071"
/>
<path stroke="#ffb157" vector-effect="non-scaling-stroke" d="
  M 561.0255 350.6338
  A 2.61 2.61 0.0 0 0 557.6056 349.2451
  L 556.6660 349.6420
  A 2.61 2.61 0.0 0 0 555.2773 353.0619
  L 561.6745 368.2062
  A 2.61 2.61 0.0 0 0 565.0944 369.5949
  L 566.0340 369.1980
  A 2.61 2.61 0.0 0 0 567.4227 365.7781
  L 561.0255 350.6338"
/>
<path stroke="#b25f37" vector-effect="non-scaling-stroke" d="
  M 370.7733 358.3000
  A 2.78 2.78 0.0 0 0 366.9127 357.5566
  L 366.6477 357.7360
  A 2.78 2.78 0.0 0 0 365.9043 361.5966
  L 371.5667 369.9600
  A 2.78 2.78 0.0 0 0 375.4273 370.7034
  L 375.6923 370.5240
  A 2.78 2.78 0.0 0 0 376.4357 366.6634
  L 370.7733 358.3000"
/>
<path stroke="#af5e36" vector-effect="non-scaling-stroke" d="
  M 617.1760 373.3666
  A 2.74 2.74 0.0 0 0 616.8383 369.5064
  L 609.5456 363.3871
  A 2.74 2.74 0.0 0 0 605.6854 363.7248
  L 605.5440 363.8934
  A 2.74 2.74 0.0 0 0 605.8817 367.7536
  L 613.1744 373.8729
  A 2.74 2.74 0.0 0 0 617.0346 373.5352
  L 617.1760 373.3666"
/>
<path stroke="#ffae55" vector-effect="non-scaling-stroke" d="
  M 437.2213 369.2528
  A 2.22 2.22 0.0 0 0 436.7789 366.1446
  L 435.7873 365.4001
  A 2.22 2.22 0.0 0 0 432.6791 365.8425
  L 426.3987 374.2072
  A 2.22 2.22 0.0 0 0 426.8411 377.3154
  L 427.8327 378.0599
  A 2.22 2.22 0.0 0 0 430.9409 377.6175
  L 437.2213 369.2528"
/>
<path stroke="#b25f37" vector-effect="non-scaling-stroke" d="
  M 677.8228 368.4472
  A 2.65 2.65 0.0 0 0 674.0755 368.3949
  L 667.2791 375.0040
  A 2.65 2.65 0.0 0 0 667.2268 378.7513
  L 667.6172 379.1528
  A 2.65 2.65 0.0 0 0 671.3645 379.2051
  L 678.1609 372.5960
  A 2.65 2.65 0.0 0 0 678.2132 368.8487
  L 677.8228 368.4472"
/>
<path stroke="#ffc265" vector-effect="non-scaling-stroke" d="
  M 473.1646 371.9058
  A 2.50 2.50 0.0 0 0 469.8318 370.7256
  L 461.3295 374.7810
  A 2.50 2.50 0.0 0 0 460.1493 378.1137
  L 460.2354 378.2942
  A 2.50 2.50 0.0 0 0 463.5682 379.4744
  L 472.0705 375.4190
  A 2.50 2.50 0.0 0 0 473.2507 372.0863
  L 473.1646 371.9058"
/>
<path stroke="#b25f37" vector-effect="non-scaling-stroke" d="
  M 543.6459 375.9785
  A 2.84 2.84 0.0 0 0 543.0661 372.0042
  L 542.8897 371.8727
  A 2.84 2.84 0.0 0 0 538.9154 372.4525
  L 533.2141 380.1015
  A 2.84 2.84 0.0 0 0 533.7939 384.0758
  L 533.9703 384.2073
  A 2.84 2.84 0.0 0 0 537.9446 383.6275
  L 543.6459 375.9785"
/>
<path stroke="#fedbaa" vector-effect="non-scaling-stroke" d="
  M 589.1431 376.1351
  A 2.59 2.59 0.0 0 0 585.8021 374.6336
  L 576.7717 378.0639
  A 2.59 2.59 0.0 0 0 575.2702 381.4049
  L 575.5969 382.2649
  A 2.59 2.59 0.0 0 0 578.9379 383.7664
  L 587.9683 380.3361
  A 2.59 2.59 0.0 0 0 589.4698 376.9951
  L 589.1431 376.1351"
/>
<path stroke="#b25f37" vector-effect="non-scaling-stroke" d="
  M 355.2924 390.9592
  A 2.71 2.71 0.0 0 0 355.2790 387.1267
  L 354.9242 386.7743
  A 2.71 2.71 0.0 0 0 351.0917 386.7877
  L 344.0876 393.8408
  A 2.71 2.71 0.0 0 0 344.1010 397.6733
  L 344.4558 398.0257
  A 2.71 2.71 0.0 0 0 348.2883 398.0123
  L 355.2924 390.9592"
/>
<path stroke="#b25f37" vector-effect="non-scaling-stroke" d="
  M 416.6183 387.5106
  A 2.82 2.82 0.0 0 0 412.6535 387.0799
  L 405.1719 393.0953
  A 2.82 2.82 0.0 0 0 404.7412 397.0600
  L 404.9417 397.3094
  A 2.82 2.82 0.0 0 0 408.9065 397.7401
  L 416.3881 391.7247
  A 2.82 2.82 0.0 0 0 416.8188 387.7600
  L 416.6183 387.5106"
/>
<path stroke="#fedbaa" vector-effect="non-scaling-stroke" d="
  M 515.2994 389.2168
  A 2.04 2.04 0.0 0 0 512.9246 387.5786
  L 502.1250 389.5607
  A 2.04 2.04 0.0 0 0 500.4868 391.9354
  L 500.8406 393.8632
  A 2.04 2.04 0.0 0 0 503.2154 395.5014
  L 514.0150 393.5193
  A 2.04 2.04 0.0 0 0 515.6532 391.1446
  L 515.2994 389.2168"
/>
<path stroke="#ffc265" vector-effect="non-scaling-stroke" d="
  M 455.98 407.82
  C 459.18 407.90 458.99 405.18 458.12 402.94
  Q 456.66 399.20 456.21 395.20
  C 455.87 392.09 454.70 391.09 451.74 392.85
  Q 449.93 393.93 450.81 395.84
  Q 453.00 400.64 454.31 406.45
  A 1.77 1.76 -5.5 0 0 455.98 407.82"
/>
<path stroke="#af5e36" vector-effect="non-scaling-stroke" d="
  M 605.1931 399.3865
  A 2.83 2.83 0.0 0 0 603.5844 395.7218
  L 603.3608 395.6346
  A 2.83 2.83 0.0 0 0 599.6961 397.2433
  L 596.3469 405.8335
  A 2.83 2.83 0.0 0 0 597.9556 409.4982
  L 598.1792 409.5854
  A 2.83 2.83 0.0 0 0 601.8439 407.9767
  L 605.1931 399.3865"
/>
<path stroke="#af5e36" vector-effect="non-scaling-stroke" d="
  M 681.9746 398.6423
  A 2.60 2.60 0.0 0 0 678.7221 396.9274
  L 678.1871 397.0930
  A 2.60 2.60 0.0 0 0 676.4722 400.3455
  L 679.5654 410.3377
  A 2.60 2.60 0.0 0 0 682.8179 412.0526
  L 683.3529 411.8870
  A 2.60 2.60 0.0 0 0 685.0678 408.6345
  L 681.9746 398.6423"
/>
<path stroke="#ffb157" vector-effect="non-scaling-stroke" d="
  M 323.8012 401.8670
  A 2.54 2.54 0.0 0 0 320.2115 401.7354
  L 319.6987 402.2119
  A 2.54 2.54 0.0 0 0 319.5671 405.8016
  L 326.9188 413.7130
  A 2.54 2.54 0.0 0 0 330.5085 413.8446
  L 331.0213 413.3681
  A 2.54 2.54 0.0 0 0 331.1529 409.7784
  L 323.8012 401.8670"
/>
<path stroke="#ffb157" vector-effect="non-scaling-stroke" d="
  M 382.3886 409.6529
  A 2.39 2.39 0.0 0 0 379.7842 407.4984
  L 369.1118 408.5072
  A 2.39 2.39 0.0 0 0 366.9573 411.1116
  L 367.0514 412.1071
  A 2.39 2.39 0.0 0 0 369.6558 414.2616
  L 380.3282 413.2528
  A 2.39 2.39 0.0 0 0 382.4827 410.6484
  L 382.3886 409.6529"
/>
<path stroke="#b25f37" vector-effect="non-scaling-stroke" d="
  M 569.4773 419.0117
  A 2.87 2.87 0.0 0 0 568.9405 414.9885
  L 561.6637 409.4250
  A 2.87 2.87 0.0 0 0 557.6406 409.9618
  L 557.4827 410.1683
  A 2.87 2.87 0.0 0 0 558.0195 414.1915
  L 565.2963 419.7550
  A 2.87 2.87 0.0 0 0 569.3194 419.2182
  L 569.4773 419.0117"
/>
<path stroke="#aa5e35" vector-effect="non-scaling-stroke" d="
  M 483.4605 415.8770
  A 2.64 2.64 0.0 0 0 483.2586 412.1490
  L 483.0353 411.9486
  A 2.64 2.64 0.0 0 0 479.3072 412.1505
  L 474.8995 417.0630
  A 2.64 2.64 0.0 0 0 475.1014 420.7910
  L 475.3247 420.9914
  A 2.64 2.64 0.0 0 0 479.0528 420.7895
  L 483.4605 415.8770"
/>
<path stroke="#ffae55" vector-effect="non-scaling-stroke" d="
  M 467.13 428.15
  A 1.74 1.74 40.1 0 0 468.90 428.00
  Q 471.75 425.98 473.21 422.38
  A 1.54 1.29 51.9 0 0 473.24 421.43
  Q 472.66 419.31 473.35 417.23
  A 1.33 1.01 -54.5 0 0 473.32 416.29
  C 471.49 412.74 467.16 420.80 466.04 422.17
  C 464.05 424.63 464.20 426.75 467.13 428.15"
/>
<path stroke="#ffb157" vector-effect="non-scaling-stroke" d="
  M 375.4340 421.5335
  A 2.98 2.98 0.0 0 0 371.3395 420.5354
  L 362.8291 425.7098
  A 2.98 2.98 0.0 0 0 361.8310 429.8043
  L 361.9660 430.0265
  A 2.98 2.98 0.0 0 0 366.0605 431.0246
  L 374.5709 425.8502
  A 2.98 2.98 0.0 0 0 375.5690 421.7557
  L 375.4340 421.5335"
/>
<path stroke="#ffb157" vector-effect="non-scaling-stroke" d="
  M 445.3331 421.6596
  A 2.33 2.33 0.0 0 0 442.2065 420.6195
  L 441.0977 421.1747
  A 2.33 2.33 0.0 0 0 440.0576 424.3013
  L 446.4069 436.9804
  A 2.33 2.33 0.0 0 0 449.5335 438.0205
  L 450.6423 437.4653
  A 2.33 2.33 0.0 0 0 451.6824 434.3387
  L 445.3331 421.6596"
/>
<path stroke="#ffb157" vector-effect="non-scaling-stroke" d="
  M 530.3570 438.9222
  A 2.47 2.47 0.0 0 0 527.8148 436.5265
  L 517.3794 436.8362
  A 2.47 2.47 0.0 0 0 514.9838 439.3784
  L 515.0230 440.6978
  A 2.47 2.47 0.0 0 0 517.5652 443.0935
  L 528.0006 442.7838
  A 2.47 2.47 0.0 0 0 530.3962 440.2416
  L 530.3570 438.9222"
/>
<path stroke="#feecca" vector-effect="non-scaling-stroke" d="
  M 473.94 458.81
  C 475.02 459.45 486.49 463.46 487.72 460.55
  Q 488.72 458.20 486.50 456.93
  Q 480.49 453.51 474.07 454.16
  A 1.04 0.99 12.3 0 0 473.30 454.63
  Q 471.58 457.41 473.94 458.81"
/>
<path stroke="#af6f56" vector-effect="non-scaling-stroke" d="
  M 553.5522 458.6910
  A 2.78 2.78 0.0 0 0 549.6930 457.9409
  L 549.5106 458.0639
  A 2.78 2.78 0.0 0 0 548.7604 461.9232
  L 553.6478 469.1690
  A 2.78 2.78 0.0 0 0 557.5070 469.9191
  L 557.6894 469.7961
  A 2.78 2.78 0.0 0 0 558.4396 465.9368
  L 553.5522 458.6910"
/>
<path stroke="#b27666" vector-effect="non-scaling-stroke" d="
  M 529.6286 485.6629
  A 2.89 2.89 0.0 0 0 525.5784 485.1153
  L 525.3875 485.2608
  A 2.89 2.89 0.0 0 0 524.8399 489.3110
  L 530.4514 496.6771
  A 2.89 2.89 0.0 0 0 534.5016 497.2247
  L 534.6925 497.0792
  A 2.89 2.89 0.0 0 0 535.2401 493.0290
  L 529.6286 485.6629"
/>
<path stroke="#fed74d" vector-effect="non-scaling-stroke" d="
  M 299.4530 537.7535
  A 1.76 1.76 0.0 0 0 296.9652 537.6754
  L 295.6677 538.8939
  A 1.76 1.76 0.0 0 0 295.5895 541.3816
  L 303.4070 549.7065
  A 1.76 1.76 0.0 0 0 305.8948 549.7846
  L 307.1923 548.5661
  A 1.76 1.76 0.0 0 0 307.2705 546.0784
  L 299.4530 537.7535"
/>
<path stroke="#fe9893" vector-effect="non-scaling-stroke" d="
  M 343.5220 581.3571
  A 2.65 2.65 0.0 0 0 341.6030 578.1380
  L 331.6371 575.6163
  A 2.65 2.65 0.0 0 0 328.4180 577.5352
  L 328.1580 578.5629
  A 2.65 2.65 0.0 0 0 330.0770 581.7820
  L 340.0429 584.3037
  A 2.65 2.65 0.0 0 0 343.2620 582.3848
  L 343.5220 581.3571"
/>
</g>
<path fill="#fefefe" d="
  M 0.00 0.00
  L 1024.00 0.00
  L 1024.00 1024.00
  L 0.00 1024.00
  L 0.00 0.00
  Z
  M 382.14 168.26
  Q 378.87 190.86 376.21 213.81
  C 373.15 240.21 406.95 245.67 411.61 222.79
  C 412.89 216.50 410.56 210.47 407.20 205.30
  Q 395.12 186.73 383.21 168.03
  Q 382.37 166.71 382.14 168.26
  Z
  M 527.73 207.47
  Q 526.73 208.86 526.62 210.35
  L 525.77 222.50
  Q 525.68 223.77 526.58 222.83
  C 529.05 220.24 534.97 214.38 535.33 210.83
  C 535.73 206.85 530.78 203.25 527.73 207.47
  Z
  M 482.81 244.49
  C 485.26 240.37 483.44 235.92 481.28 232.26
  Q 476.28 223.79 471.01 215.38
  Q 470.39 214.39 470.35 215.56
  Q 469.94 226.71 470.67 237.30
  C 471.06 243.00 472.92 247.65 479.45 246.73
  Q 481.66 246.41 482.81 244.49
  Z
  M 729.28 249.89
  C 701.45 269.73 745.30 306.87 759.56 267.06
  Q 767.09 246.04 774.05 224.80
  Q 774.36 223.85 773.49 224.34
  Q 754.16 235.21 734.90 246.37
  Q 731.30 248.45 729.28 249.89
  Z
  M 643.65 234.34
  C 636.28 230.71 624.15 243.97 636.06 247.97
  A 1.57 1.55 45.3 0 0 637.02 247.98
  Q 642.46 246.31 644.92 241.41
  C 646.15 238.97 646.41 235.70 643.65 234.34
  Z
  M 274.93 290.79
  C 278.03 300.49 281.74 312.87 294.76 312.49
  C 302.71 312.26 309.29 306.93 311.39 299.35
  C 313.91 290.31 308.30 282.63 300.88 277.84
  Q 282.87 266.23 264.83 254.63
  Q 263.68 253.89 264.06 255.20
  Q 269.25 272.99 274.93 290.79
  Z
  M 333.57 259.56
  C 330.89 265.48 338.93 269.08 343.38 268.81
  A 0.62 0.59 -88.1 0 0 343.93 268.26
  Q 344.72 261.45 339.59 258.22
  C 337.59 256.95 334.57 257.35 333.57 259.56
  Z
  M 273.79 451.75
  Q 269.58 467.23 270.03 482.37
  Q 269.26 501.51 281.34 514.65
  Q 280.78 515.64 280.71 516.50
  C 269.52 523.99 251.91 526.90 238.72 527.45
  Q 237.53 527.50 238.41 528.31
  C 253.83 542.42 275.76 551.62 296.05 555.59
  A 0.42 0.38 18.6 0 1 296.36 556.15
  Q 295.84 557.15 294.50 557.04
  Q 292.51 557.13 291.25 558.71
  C 280.13 564.38 247.80 580.59 253.79 597.50
  L 253.79 598.25
  L 251.50 602.71
  C 233.17 638.10 275.42 664.43 303.27 671.94
  L 305.04 672.75
  L 304.96 673.25
  C 291.32 673.33 275.80 679.46 270.21 692.75
  Q 268.94 696.91 268.79 701.25
  C 265.30 730.96 304.81 747.15 327.87 750.49
  Q 334.56 751.46 347.81 751.47
  Q 508.43 751.56 669.05 751.46
  Q 685.84 751.45 689.06 751.23
  C 712.98 749.60 745.75 738.78 755.40 713.62
  Q 757.78 707.42 756.46 701.00
  Q 757.29 696.50 755.25 692.46
  Q 750.42 681.12 738.19 676.57
  Q 726.61 672.26 715.23 673.74
  C 736.40 667.77 759.45 658.61 771.66 638.68
  C 792.16 605.23 753.50 577.92 725.94 570.54
  Q 729.02 568.86 732.40 567.87
  Q 738.72 566.02 739.05 565.90
  C 760.40 558.45 782.76 552.94 805.32 550.71
  Q 806.82 550.56 805.72 549.53
  C 788.23 533.19 767.89 524.04 744.70 517.78
  Q 744.90 515.78 744.46 514.50
  C 753.25 504.88 756.40 493.34 756.29 480.50
  Q 756.37 465.44 752.56 451.47
  Q 750.82 443.08 747.94 435.55
  C 730.03 388.78 692.91 350.73 649.29 326.72
  C 595.46 297.09 532.21 288.53 471.75 296.55
  C 385.98 307.92 297.15 363.80 273.79 451.75
  Z
  M 786.78 371.20
  C 802.33 383.80 823.53 369.81 822.73 351.19
  Q 822.65 349.17 820.61 339.24
  Q 816.34 318.36 812.01 297.48
  Q 811.84 296.66 811.35 297.34
  Q 797.17 317.21 783.38 337.35
  C 775.35 349.08 775.34 361.93 786.78 371.20
  Z
  M 245.31 397.11
  C 239.50 413.92 262.60 414.97 260.21 402.01
  Q 257.54 387.44 254.56 373.09
  Q 254.39 372.24 254.08 373.05
  Q 249.48 385.02 245.31 397.11
  Z
  M 789.52 421.96
  C 785.74 432.16 797.12 439.41 801.58 430.18
  C 803.51 426.18 799.10 407.79 798.23 402.64
  Q 798.05 401.57 797.59 402.55
  Q 793.17 412.12 789.52 421.96
  Z
  M 169.69 490.31
  C 180.69 499.28 197.25 495.09 202.58 481.73
  C 207.11 470.39 201.82 459.59 192.09 453.14
  Q 168.67 437.61 144.96 422.50
  Q 144.16 421.99 144.43 422.90
  Q 150.82 444.09 157.06 465.44
  C 159.94 475.31 162.31 484.30 169.69 490.31
  Z
  M 827.44 481.99
  C 830.65 488.92 838.55 492.82 845.96 492.17
  C 853.57 491.51 858.19 487.29 863.52 481.07
  Q 879.39 462.55 894.64 443.44
  Q 894.96 443.05 894.46 443.13
  Q 870.09 446.95 845.76 451.07
  C 829.99 453.74 820.23 466.37 827.44 481.99
  Z
  M 173.66 536.47
  C 168.77 551.99 190.64 553.78 187.26 539.43
  Q 184.46 527.56 181.98 515.86
  Q 181.75 514.80 181.33 515.79
  Q 176.96 525.98 173.66 536.47
  Z
  M 205.49 575.50
  C 209.16 578.68 214.83 576.36 215.69 572.03
  Q 216.06 570.18 215.13 565.48
  Q 213.25 556.00 211.16 546.55
  Q 210.88 545.25 210.36 546.48
  Q 207.00 554.54 203.87 562.88
  C 201.93 568.03 201.21 571.81 205.49 575.50
  Z
  M 820.58 619.13
  C 814.64 634.33 838.36 638.60 835.74 622.99
  Q 833.39 609.02 830.91 595.06
  Q 830.79 594.35 830.50 595.01
  Q 825.31 607.01 820.58 619.13
  Z
  M 203.44 673.56
  C 217.58 684.42 237.32 667.17 225.81 652.18
  Q 223.54 649.21 221.71 648.02
  Q 204.24 636.60 186.60 625.28
  Q 185.48 624.57 185.83 625.85
  Q 189.99 641.44 194.64 656.98
  C 196.93 664.63 198.11 669.47 203.44 673.56
  Z
  M 816.68 692.42
  C 808.65 702.54 827.01 710.78 828.26 696.75
  Q 829.00 688.49 829.11 679.96
  Q 829.11 679.46 828.76 679.80
  Q 820.26 687.93 816.68 692.42
  Z
  M 228.66 729.57
  C 230.75 731.81 234.30 731.32 234.92 728.12
  C 235.65 724.32 232.03 720.42 228.96 718.70
  A 0.47 0.47 26.5 0 0 228.30 718.92
  C 226.97 721.79 226.21 726.95 228.66 729.57
  Z
  M 256.44 849.53
  Q 302.96 856.79 349.93 860.15
  C 467.82 868.61 583.71 868.67 704.24 861.87
  C 715.64 861.22 885.93 851.22 871.53 829.71
  Q 870.32 827.91 868.44 826.83
  C 856.69 820.12 842.13 817.03 828.94 814.58
  C 792.67 807.84 755.71 804.34 718.93 801.89
  C 640.45 796.65 562.32 795.27 483.69 796.03
  Q 400.33 796.84 317.27 803.96
  C 308.41 804.72 192.79 814.33 204.00 832.46
  C 209.95 842.10 245.33 847.80 256.44 849.53
  Z"
/>
<path fill="#ffc422" d="
  M 382.14 168.26
  Q 382.37 166.71 383.21 168.03
  Q 395.12 186.73 407.20 205.30
  C 410.56 210.47 412.89 216.50 411.61 222.79
  C 406.95 245.67 373.15 240.21 376.21 213.81
  Q 378.87 190.86 382.14 168.26
  Z"
/>
<path fill="#ffac3e" d="
  M 527.73 207.47
  C 530.78 203.25 535.73 206.85 535.33 210.83
  C 534.97 214.38 529.05 220.24 526.58 222.83
  Q 525.68 223.77 525.77 222.50
  L 526.62 210.35
  Q 526.73 208.86 527.73 207.47
  Z"
/>
<path fill="#ffc422" d="
  M 482.81 244.49
  Q 481.66 246.41 479.45 246.73
  C 472.92 247.65 471.06 243.00 470.67 237.30
  Q 469.94 226.71 470.35 215.56
  Q 470.39 214.39 471.01 215.38
  Q 476.28 223.79 481.28 232.26
  C 483.44 235.92 485.26 240.37 482.81 244.49
  Z"
/>
<path fill="#ffc422" d="
  M 759.56 267.06
  C 745.30 306.87 701.45 269.73 729.28 249.89
  Q 731.30 248.45 734.90 246.37
  Q 754.16 235.21 773.49 224.34
  Q 774.36 223.85 774.05 224.80
  Q 767.09 246.04 759.56 267.06
  Z"
/>
<path fill="#fa3d1f" d="
  M 636.06 247.97
  C 624.15 243.97 636.28 230.71 643.65 234.34
  C 646.41 235.70 646.15 238.97 644.92 241.41
  Q 642.46 246.31 637.02 247.98
  A 1.57 1.55 45.3 0 1 636.06 247.97
  Z"
/>
<path fill="#ffc422" d="
  M 294.76 312.49
  C 281.74 312.87 278.03 300.49 274.93 290.79
  Q 269.25 272.99 264.06 255.20
  Q 263.68 253.89 264.83 254.63
  Q 282.87 266.23 300.88 277.84
  C 308.30 282.63 313.91 290.31 311.39 299.35
  C 309.29 306.93 302.71 312.26 294.76 312.49
  Z"
/>
<path fill="#ffac3e" d="
  M 343.38 268.81
  C 338.93 269.08 330.89 265.48 333.57 259.56
  C 334.57 257.35 337.59 256.95 339.59 258.22
  Q 344.72 261.45 343.93 268.26
  A 0.62 0.59 -88.1 0 1 343.38 268.81
  Z"
/>
<path fill="#ffbc60" d="
  M 752.56 451.47
  Q 612.41 451.48 472.31 451.38
  Q 405.16 451.33 338.00 451.74
  C 339.93 444.08 334.60 447.06 330.97 446.97
  Q 327.35 446.87 323.72 447.35
  A 0.75 0.57 -3.4 0 0 323.07 447.90
  L 322.91 450.26
  A 0.64 0.60 5.4 0 0 323.48 450.90
  L 329.25 451.54
  Q 322.16 451.95 315.06 451.75
  Q 294.43 451.17 273.79 451.75
  C 297.15 363.80 385.98 307.92 471.75 296.55
  C 532.21 288.53 595.46 297.09 649.29 326.72
  C 692.91 350.73 730.03 388.78 747.94 435.55
  Q 750.82 443.08 752.56 451.47
  Z
  M 549.0956 330.3128
  A 2.34 2.34 0.0 0 0 547.9367 327.2131
  L 537.9817 322.6763
  A 2.34 2.34 0.0 0 0 534.8820 323.8353
  L 534.3844 324.9272
  A 2.34 2.34 0.0 0 0 535.5433 328.0269
  L 545.4983 332.5637
  A 2.34 2.34 0.0 0 0 548.5980 331.4047
  L 549.0956 330.3128
  Z
  M 493.7276 330.7381
  A 2.58 2.58 0.0 0 0 491.2579 328.0524
  L 481.2467 327.6328
  A 2.58 2.58 0.0 0 0 478.5609 330.1025
  L 478.5324 330.7819
  A 2.58 2.58 0.0 0 0 481.0021 333.4676
  L 491.0133 333.8872
  A 2.58 2.58 0.0 0 0 493.6991 331.4175
  L 493.7276 330.7381
  Z
  M 416.9568 340.8041
  A 2.23 2.23 0.0 0 0 414.2174 339.2415
  L 412.6934 339.6585
  A 2.23 2.23 0.0 0 0 411.1309 342.3979
  L 414.1232 353.3359
  A 2.23 2.23 0.0 0 0 416.8626 354.8985
  L 418.3866 354.4815
  A 2.23 2.23 0.0 0 0 419.9491 351.7421
  L 416.9568 340.8041
  Z
  M 633.0104 345.2071
  A 2.60 2.60 0.0 0 0 632.1520 341.6317
  L 631.5040 341.2346
  A 2.60 2.60 0.0 0 0 627.9287 342.0930
  L 622.6096 350.7729
  A 2.60 2.60 0.0 0 0 623.4680 354.3483
  L 624.1160 354.7454
  A 2.60 2.60 0.0 0 0 627.6913 353.8870
  L 633.0104 345.2071
  Z
  M 561.0255 350.6338
  A 2.61 2.61 0.0 0 0 557.6056 349.2451
  L 556.6660 349.6420
  A 2.61 2.61 0.0 0 0 555.2773 353.0619
  L 561.6745 368.2062
  A 2.61 2.61 0.0 0 0 565.0944 369.5949
  L 566.0340 369.1980
  A 2.61 2.61 0.0 0 0 567.4227 365.7781
  L 561.0255 350.6338
  Z
  M 370.7733 358.3000
  A 2.78 2.78 0.0 0 0 366.9127 357.5566
  L 366.6477 357.7360
  A 2.78 2.78 0.0 0 0 365.9043 361.5966
  L 371.5667 369.9600
  A 2.78 2.78 0.0 0 0 375.4273 370.7034
  L 375.6923 370.5240
  A 2.78 2.78 0.0 0 0 376.4357 366.6634
  L 370.7733 358.3000
  Z
  M 617.1760 373.3666
  A 2.74 2.74 0.0 0 0 616.8383 369.5064
  L 609.5456 363.3871
  A 2.74 2.74 0.0 0 0 605.6854 363.7248
  L 605.5440 363.8934
  A 2.74 2.74 0.0 0 0 605.8817 367.7536
  L 613.1744 373.8729
  A 2.74 2.74 0.0 0 0 617.0346 373.5352
  L 617.1760 373.3666
  Z
  M 437.2213 369.2528
  A 2.22 2.22 0.0 0 0 436.7789 366.1446
  L 435.7873 365.4001
  A 2.22 2.22 0.0 0 0 432.6791 365.8425
  L 426.3987 374.2072
  A 2.22 2.22 0.0 0 0 426.8411 377.3154
  L 427.8327 378.0599
  A 2.22 2.22 0.0 0 0 430.9409 377.6175
  L 437.2213 369.2528
  Z
  M 677.8228 368.4472
  A 2.65 2.65 0.0 0 0 674.0755 368.3949
  L 667.2791 375.0040
  A 2.65 2.65 0.0 0 0 667.2268 378.7513
  L 667.6172 379.1528
  A 2.65 2.65 0.0 0 0 671.3645 379.2051
  L 678.1609 372.5960
  A 2.65 2.65 0.0 0 0 678.2132 368.8487
  L 677.8228 368.4472
  Z
  M 473.1646 371.9058
  A 2.50 2.50 0.0 0 0 469.8318 370.7256
  L 461.3295 374.7810
  A 2.50 2.50 0.0 0 0 460.1493 378.1137
  L 460.2354 378.2942
  A 2.50 2.50 0.0 0 0 463.5682 379.4744
  L 472.0705 375.4190
  A 2.50 2.50 0.0 0 0 473.2507 372.0863
  L 473.1646 371.9058
  Z
  M 543.6459 375.9785
  A 2.84 2.84 0.0 0 0 543.0661 372.0042
  L 542.8897 371.8727
  A 2.84 2.84 0.0 0 0 538.9154 372.4525
  L 533.2141 380.1015
  A 2.84 2.84 0.0 0 0 533.7939 384.0758
  L 533.9703 384.2073
  A 2.84 2.84 0.0 0 0 537.9446 383.6275
  L 543.6459 375.9785
  Z
  M 589.1431 376.1351
  A 2.59 2.59 0.0 0 0 585.8021 374.6336
  L 576.7717 378.0639
  A 2.59 2.59 0.0 0 0 575.2702 381.4049
  L 575.5969 382.2649
  A 2.59 2.59 0.0 0 0 578.9379 383.7664
  L 587.9683 380.3361
  A 2.59 2.59 0.0 0 0 589.4698 376.9951
  L 589.1431 376.1351
  Z
  M 355.2924 390.9592
  A 2.71 2.71 0.0 0 0 355.2790 387.1267
  L 354.9242 386.7743
  A 2.71 2.71 0.0 0 0 351.0917 386.7877
  L 344.0876 393.8408
  A 2.71 2.71 0.0 0 0 344.1010 397.6733
  L 344.4558 398.0257
  A 2.71 2.71 0.0 0 0 348.2883 398.0123
  L 355.2924 390.9592
  Z
  M 416.6183 387.5106
  A 2.82 2.82 0.0 0 0 412.6535 387.0799
  L 405.1719 393.0953
  A 2.82 2.82 0.0 0 0 404.7412 397.0600
  L 404.9417 397.3094
  A 2.82 2.82 0.0 0 0 408.9065 397.7401
  L 416.3881 391.7247
  A 2.82 2.82 0.0 0 0 416.8188 387.7600
  L 416.6183 387.5106
  Z
  M 515.2994 389.2168
  A 2.04 2.04 0.0 0 0 512.9246 387.5786
  L 502.1250 389.5607
  A 2.04 2.04 0.0 0 0 500.4868 391.9354
  L 500.8406 393.8632
  A 2.04 2.04 0.0 0 0 503.2154 395.5014
  L 514.0150 393.5193
  A 2.04 2.04 0.0 0 0 515.6532 391.1446
  L 515.2994 389.2168
  Z
  M 455.98 407.82
  C 459.18 407.90 458.99 405.18 458.12 402.94
  Q 456.66 399.20 456.21 395.20
  C 455.87 392.09 454.70 391.09 451.74 392.85
  Q 449.93 393.93 450.81 395.84
  Q 453.00 400.64 454.31 406.45
  A 1.77 1.76 -5.5 0 0 455.98 407.82
  Z
  M 605.1931 399.3865
  A 2.83 2.83 0.0 0 0 603.5844 395.7218
  L 603.3608 395.6346
  A 2.83 2.83 0.0 0 0 599.6961 397.2433
  L 596.3469 405.8335
  A 2.83 2.83 0.0 0 0 597.9556 409.4982
  L 598.1792 409.5854
  A 2.83 2.83 0.0 0 0 601.8439 407.9767
  L 605.1931 399.3865
  Z
  M 681.9746 398.6423
  A 2.60 2.60 0.0 0 0 678.7221 396.9274
  L 678.1871 397.0930
  A 2.60 2.60 0.0 0 0 676.4722 400.3455
  L 679.5654 410.3377
  A 2.60 2.60 0.0 0 0 682.8179 412.0526
  L 683.3529 411.8870
  A 2.60 2.60 0.0 0 0 685.0678 408.6345
  L 681.9746 398.6423
  Z
  M 323.8012 401.8670
  A 2.54 2.54 0.0 0 0 320.2115 401.7354
  L 319.6987 402.2119
  A 2.54 2.54 0.0 0 0 319.5671 405.8016
  L 326.9188 413.7130
  A 2.54 2.54 0.0 0 0 330.5085 413.8446
  L 331.0213 413.3681
  A 2.54 2.54 0.0 0 0 331.1529 409.7784
  L 323.8012 401.8670
  Z
  M 382.3886 409.6529
  A 2.39 2.39 0.0 0 0 379.7842 407.4984
  L 369.1118 408.5072
  A 2.39 2.39 0.0 0 0 366.9573 411.1116
  L 367.0514 412.1071
  A 2.39 2.39 0.0 0 0 369.6558 414.2616
  L 380.3282 413.2528
  A 2.39 2.39 0.0 0 0 382.4827 410.6484
  L 382.3886 409.6529
  Z
  M 569.4773 419.0117
  A 2.87 2.87 0.0 0 0 568.9405 414.9885
  L 561.6637 409.4250
  A 2.87 2.87 0.0 0 0 557.6406 409.9618
  L 557.4827 410.1683
  A 2.87 2.87 0.0 0 0 558.0195 414.1915
  L 565.2963 419.7550
  A 2.87 2.87 0.0 0 0 569.3194 419.2182
  L 569.4773 419.0117
  Z
  M 483.4605 415.8770
  A 2.64 2.64 0.0 0 0 483.2586 412.1490
  L 483.0353 411.9486
  A 2.64 2.64 0.0 0 0 479.3072 412.1505
  L 474.8995 417.0630
  A 2.64 2.64 0.0 0 0 475.1014 420.7910
  L 475.3247 420.9914
  A 2.64 2.64 0.0 0 0 479.0528 420.7895
  L 483.4605 415.8770
  Z
  M 467.13 428.15
  A 1.74 1.74 40.1 0 0 468.90 428.00
  Q 471.75 425.98 473.21 422.38
  A 1.54 1.29 51.9 0 0 473.24 421.43
  Q 472.66 419.31 473.35 417.23
  A 1.33 1.01 -54.5 0 0 473.32 416.29
  C 471.49 412.74 467.16 420.80 466.04 422.17
  C 464.05 424.63 464.20 426.75 467.13 428.15
  Z
  M 375.4340 421.5335
  A 2.98 2.98 0.0 0 0 371.3395 420.5354
  L 362.8291 425.7098
  A 2.98 2.98 0.0 0 0 361.8310 429.8043
  L 361.9660 430.0265
  A 2.98 2.98 0.0 0 0 366.0605 431.0246
  L 374.5709 425.8502
  A 2.98 2.98 0.0 0 0 375.5690 421.7557
  L 375.4340 421.5335
  Z
  M 445.3331 421.6596
  A 2.33 2.33 0.0 0 0 442.2065 420.6195
  L 441.0977 421.1747
  A 2.33 2.33 0.0 0 0 440.0576 424.3013
  L 446.4069 436.9804
  A 2.33 2.33 0.0 0 0 449.5335 438.0205
  L 450.6423 437.4653
  A 2.33 2.33 0.0 0 0 451.6824 434.3387
  L 445.3331 421.6596
  Z
  M 530.3570 438.9222
  A 2.47 2.47 0.0 0 0 527.8148 436.5265
  L 517.3794 436.8362
  A 2.47 2.47 0.0 0 0 514.9838 439.3784
  L 515.0230 440.6978
  A 2.47 2.47 0.0 0 0 517.5652 443.0935
  L 528.0006 442.7838
  A 2.47 2.47 0.0 0 0 530.3962 440.2416
  L 530.3570 438.9222
  Z"
/>
<path fill="#ffc422" d="
  M 786.78 371.20
  C 775.34 361.93 775.35 349.08 783.38 337.35
  Q 797.17 317.21 811.35 297.34
  Q 811.84 296.66 812.01 297.48
  Q 816.34 318.36 820.61 339.24
  Q 822.65 349.17 822.73 351.19
  C 823.53 369.81 802.33 383.80 786.78 371.20
  Z"
/>
<rect fill="#fdfaf4" x="-7.81" y="-2.94" transform="translate(541.74,327.62) rotate(24.5)" width="15.62" height="5.88" rx="2.34"/>
<rect fill="#550009" x="-7.59" y="-2.92" transform="translate(486.13,330.76) rotate(2.4)" width="15.18" height="5.84" rx="2.58"/>
<rect fill="#fdfaf4" x="-3.02" y="-7.90" transform="translate(415.54,347.07) rotate(-15.3)" width="6.04" height="15.80" rx="2.23"/>
<rect fill="#fdfaf4" x="-2.98" y="-7.69" transform="translate(627.81,347.99) rotate(31.5)" width="5.96" height="15.38" rx="2.60"/>
<rect fill="#ffa64d" x="-3.12" y="-10.83" transform="translate(561.35,359.42) rotate(-22.9)" width="6.24" height="21.66" rx="2.61"/>
<rect fill="#65020d" x="-2.94" y="-7.83" transform="translate(371.17,364.13) rotate(-34.1)" width="5.88" height="15.66" rx="2.78"/>
<rect fill="#5e000b" x="-7.50" y="-2.85" transform="translate(611.36,368.63) rotate(40.0)" width="15.00" height="5.70" rx="2.74"/>
<rect fill="#ffa049" x="-2.84" y="-7.45" transform="translate(431.81,371.73) rotate(36.9)" width="5.68" height="14.90" rx="2.22"/>
<rect fill="#65020d" x="-7.39" y="-2.93" transform="translate(672.72,373.80) rotate(-44.2)" width="14.78" height="5.86" rx="2.65"/>
<rect fill="#fec86a" x="-7.21" y="-2.60" transform="translate(466.70,375.10) rotate(-25.5)" width="14.42" height="5.20" rx="2.50"/>
<rect fill="#65020d" x="-2.95" y="-7.61" transform="translate(538.43,378.04) rotate(36.7)" width="5.90" height="15.22" rx="2.84"/>
<path fill="#fa3d1f" d="
  M 260.21 402.01
  C 262.60 414.97 239.50 413.92 245.31 397.11
  Q 249.48 385.02 254.08 373.05
  Q 254.39 372.24 254.56 373.09
  Q 257.54 387.44 260.21 402.01
  Z"
/>
<rect fill="#fdfaf4" x="-7.42" y="-3.05" transform="translate(582.37,379.20) rotate(-20.8)" width="14.84" height="6.10" rx="2.59"/>
<rect fill="#65020d" x="-2.96" y="-7.68" transform="translate(349.69,392.40) rotate(44.8)" width="5.92" height="15.36" rx="2.71"/>
<rect fill="#65020d" x="-7.62" y="-2.98" transform="translate(410.78,392.41) rotate(-38.8)" width="15.24" height="5.96" rx="2.82"/>
<rect fill="#fdfaf4" x="-7.53" y="-3.02" transform="translate(508.07,391.54) rotate(-10.4)" width="15.06" height="6.04" rx="2.04"/>
<path fill="#fec86a" d="
  M 455.98 407.82
  A 1.77 1.76 -5.5 0 1 454.31 406.45
  Q 453.00 400.64 450.81 395.84
  Q 449.93 393.93 451.74 392.85
  C 454.70 391.09 455.87 392.09 456.21 395.20
  Q 456.66 399.20 458.12 402.94
  C 458.99 405.18 459.18 407.90 455.98 407.82
  Z"
/>
<rect fill="#5e000b" x="-2.95" y="-7.44" transform="translate(600.77,402.61) rotate(21.3)" width="5.90" height="14.88" rx="2.83"/>
<rect fill="#5e000b" x="-2.88" y="-7.83" transform="translate(680.77,404.49) rotate(-17.2)" width="5.76" height="15.66" rx="2.60"/>
<rect fill="#ffa64d" x="-2.89" y="-7.94" transform="translate(325.36,407.79) rotate(-42.9)" width="5.78" height="15.88" rx="2.54"/>
<path fill="#ffba3c" d="
  M 801.58 430.18
  C 797.12 439.41 785.74 432.16 789.52 421.96
  Q 793.17 412.12 797.59 402.55
  Q 798.05 401.57 798.23 402.64
  C 799.10 407.79 803.51 426.18 801.58 430.18
  Z"
/>
<rect fill="#ffa64d" x="-7.75" y="-2.89" transform="translate(374.72,410.88) rotate(-5.4)" width="15.50" height="5.78" rx="2.39"/>
<rect fill="#65020d" x="-7.45" y="-3.00" transform="translate(563.48,414.59) rotate(37.4)" width="14.90" height="6.00" rx="2.87"/>
<rect fill="#550009" x="-2.79" y="-5.94" transform="translate(479.18,416.47) rotate(41.9)" width="5.58" height="11.88" rx="2.64"/>
<path fill="#ffa049" d="
  M 467.13 428.15
  C 464.20 426.75 464.05 424.63 466.04 422.17
  C 467.16 420.80 471.49 412.74 473.32 416.29
  A 1.33 1.01 -54.5 0 1 473.35 417.23
  Q 472.66 419.31 473.24 421.43
  A 1.54 1.29 51.9 0 1 473.21 422.38
  Q 471.75 425.98 468.90 428.00
  A 1.74 1.74 40.1 0 1 467.13 428.15
  Z"
/>
<rect fill="#ffa64d" x="-7.96" y="-3.11" transform="translate(368.70,425.78) rotate(-31.3)" width="15.92" height="6.22" rx="2.98"/>
<rect fill="#ffa64d" x="-2.95" y="-9.42" transform="translate(445.87,429.32) rotate(-26.6)" width="5.90" height="18.84" rx="2.33"/>
<path fill="#ffc422" d="
  M 169.69 490.31
  C 162.31 484.30 159.94 475.31 157.06 465.44
  Q 150.82 444.09 144.43 422.90
  Q 144.16 421.99 144.96 422.50
  Q 168.67 437.61 192.09 453.14
  C 201.82 459.59 207.11 470.39 202.58 481.73
  C 197.25 495.09 180.69 499.28 169.69 490.31
  Z"
/>
<rect fill="#ffa64d" x="-7.69" y="-3.13" transform="translate(522.69,439.81) rotate(-1.7)" width="15.38" height="6.26" rx="2.47"/>
<path fill="#ffc422" d="
  M 845.96 492.17
  C 838.55 492.82 830.65 488.92 827.44 481.99
  C 820.23 466.37 829.99 453.74 845.76 451.07
  Q 870.09 446.95 894.46 443.13
  Q 894.96 443.05 894.64 443.44
  Q 879.39 462.55 863.52 481.07
  C 858.19 487.29 853.57 491.51 845.96 492.17
  Z"
/>
<path fill="#ffa049" d="
  M 338.00 451.74
  L 329.25 451.54
  L 323.48 450.90
  A 0.64 0.60 5.4 0 1 322.91 450.26
  L 323.07 447.90
  A 0.75 0.57 -3.4 0 1 323.72 447.35
  Q 327.35 446.87 330.97 446.97
  C 334.60 447.06 339.93 444.08 338.00 451.74
  Z"
/>
<path fill="#ffdda0" d="
  M 752.56 451.47
  Q 756.37 465.44 756.29 480.50
  C 756.52 481.58 756.28 482.17 755.10 482.18
  C 644.59 482.74 534.08 482.24 423.56 482.25
  A 1.75 1.30 55.3 0 1 422.67 481.95
  Q 421.22 480.92 419.79 481.75
  Q 419.50 480.48 418.57 479.63
  A 1.38 1.17 -20.3 0 0 417.69 479.31
  Q 410.87 479.37 404.78 482.02
  Q 402.28 481.71 399.74 481.92
  Q 395.67 482.27 394.73 482.27
  Q 332.40 482.62 270.03 482.37
  Q 269.58 467.23 273.79 451.75
  Q 294.43 451.17 315.06 451.75
  Q 322.16 451.95 329.25 451.54
  L 338.00 451.74
  Q 405.16 451.33 472.31 451.38
  Q 612.41 451.48 752.56 451.47
  Z
  M 473.94 458.81
  C 475.02 459.45 486.49 463.46 487.72 460.55
  Q 488.72 458.20 486.50 456.93
  Q 480.49 453.51 474.07 454.16
  A 1.04 0.99 12.3 0 0 473.30 454.63
  Q 471.58 457.41 473.94 458.81
  Z
  M 553.5522 458.6910
  A 2.78 2.78 0.0 0 0 549.6930 457.9409
  L 549.5106 458.0639
  A 2.78 2.78 0.0 0 0 548.7604 461.9232
  L 553.6478 469.1690
  A 2.78 2.78 0.0 0 0 557.5070 469.9191
  L 557.6894 469.7961
  A 2.78 2.78 0.0 0 0 558.4396 465.9368
  L 553.5522 458.6910
  Z"
/>
<path fill="#fdfaf4" d="
  M 473.94 458.81
  Q 471.58 457.41 473.30 454.63
  A 1.04 0.99 12.3 0 1 474.07 454.16
  Q 480.49 453.51 486.50 456.93
  Q 488.72 458.20 487.72 460.55
  C 486.49 463.46 475.02 459.45 473.94 458.81
  Z"
/>
<rect fill="#5e000b" x="-2.89" y="-7.15" transform="translate(553.60,463.93) rotate(-34.0)" width="5.78" height="14.30" rx="2.78"/>
<path fill="#65020d" d="
  M 419.79 481.75
  C 419.65 485.56 411.14 486.16 408.35 486.41
  C 405.27 486.69 404.33 484.77 404.78 482.02
  Q 410.87 479.37 417.69 479.31
  A 1.38 1.17 -20.3 0 1 418.57 479.63
  Q 419.50 480.48 419.79 481.75
  Z"
/>
<path fill="#ffeabf" d="
  M 756.29 480.50
  C 756.40 493.34 753.25 504.88 744.46 514.50
  Q 738.25 516.76 736.75 516.75
  Q 713.62 516.53 690.50 517.04
  L 672.50 516.79
  L 643.71 517.00
  Q 596.81 516.58 549.92 516.74
  C 546.78 516.75 540.85 517.26 536.25 516.79
  L 426.96 516.77
  L 361.79 517.00
  Q 353.66 516.39 345.91 516.98
  L 331.75 516.79
  Q 311.50 516.59 291.25 517.06
  Q 287.20 517.15 281.34 514.65
  Q 269.26 501.51 270.03 482.37
  Q 332.40 482.62 394.73 482.27
  Q 395.67 482.27 399.74 481.92
  Q 402.28 481.71 404.78 482.02
  C 404.33 484.77 405.27 486.69 408.35 486.41
  C 411.14 486.16 419.65 485.56 419.79 481.75
  Q 421.22 480.92 422.67 481.95
  A 1.75 1.30 55.3 0 0 423.56 482.25
  C 534.08 482.24 644.59 482.74 755.10 482.18
  C 756.28 482.17 756.52 481.58 756.29 480.50
  Z
  M 529.6286 485.6629
  A 2.89 2.89 0.0 0 0 525.5784 485.1153
  L 525.3875 485.2608
  A 2.89 2.89 0.0 0 0 524.8399 489.3110
  L 530.4514 496.6771
  A 2.89 2.89 0.0 0 0 534.5016 497.2247
  L 534.6925 497.0792
  A 2.89 2.89 0.0 0 0 535.2401 493.0290
  L 529.6286 485.6629
  Z"
/>
<rect fill="#65020d" x="-3.01" y="-7.52" transform="translate(530.04,491.17) rotate(-37.3)" width="6.02" height="15.04" rx="2.89"/>
<path fill="#c18200" d="
  M 744.46 514.50
  Q 744.90 515.78 744.70 517.78
  Q 744.36 519.73 742.44 522.19
  C 736.93 529.23 731.40 530.46 722.06 530.48
  Q 707.40 530.52 692.75 530.50
  L 693.16 530.10
  A 1.16 0.69 72.5 0 0 693.37 529.19
  Q 692.54 522.97 690.50 517.04
  Q 713.62 516.53 736.75 516.75
  Q 738.25 516.76 744.46 514.50
  Z"
/>
<path fill="#af7000" d="
  M 281.34 514.65
  Q 287.20 517.15 291.25 517.06
  Q 311.50 516.59 331.75 516.79
  Q 330.41 523.82 327.50 530.37
  L 326.50 530.79
  Q 311.31 530.04 299.56 530.19
  Q 284.72 530.37 280.71 516.50
  Q 280.78 515.64 281.34 514.65
  Z"
/>
<path fill="#ff8926" d="
  M 187.26 539.43
  C 190.64 553.78 168.77 551.99 173.66 536.47
  Q 176.96 525.98 181.33 515.79
  Q 181.75 514.80 181.98 515.86
  Q 184.46 527.56 187.26 539.43
  Z"
/>
<path fill="#ffc908" d="
  M 280.71 516.50
  Q 284.72 530.37 299.56 530.19
  Q 311.31 530.04 326.50 530.79
  Q 326.64 530.93 326.70 531.12
  A 0.78 0.54 -37.4 0 1 326.49 531.76
  C 323.84 534.72 322.58 538.23 320.27 541.34
  A 0.79 0.44 -44.3 0 0 320.10 541.90
  Q 320.18 542.20 320.62 541.89
  C 322.60 540.48 334.19 532.45 334.29 530.75
  L 335.25 530.21
  L 353.40 530.68
  A 0.34 0.18 -3.3 0 1 353.68 530.81
  L 353.75 530.96
  C 336.44 549.85 312.61 562.42 289.31 572.32
  Q 278.30 577.00 273.99 579.72
  C 268.76 583.02 260.42 590.58 266.58 596.06
  C 273.98 602.64 309.83 592.64 319.87 590.20
  C 339.88 585.33 361.83 580.13 382.31 579.12
  Q 428.37 576.86 460.14 609.48
  Q 460.87 611.17 462.26 612.53
  C 463.95 614.18 464.79 615.72 466.22 617.38
  Q 466.65 617.87 466.06 617.81
  C 465.21 617.72 464.44 615.67 464.02 617.20
  A 0.85 0.72 -85.8 0 1 463.44 617.79
  L 461.54 618.16
  A 1.03 0.83 57.4 0 1 460.71 617.88
  Q 460.09 617.29 459.80 617.94
  A 0.33 0.30 -58.3 0 1 459.30 618.08
  Q 456.63 615.59 453.24 614.16
  A 1.49 1.25 1.1 0 1 452.54 613.55
  L 452.21 612.94
  A 1.76 1.47 85.4 0 0 451.54 612.26
  Q 447.82 610.31 444.69 607.51
  C 443.59 606.53 442.08 606.06 441.28 605.23
  Q 439.01 602.86 435.80 602.27
  Q 435.33 602.18 434.93 601.86
  C 433.20 600.43 430.92 600.50 429.43 600.04
  Q 420.46 597.21 409.00 595.99
  C 400.42 595.08 392.10 593.95 384.63 595.35
  C 378.73 596.46 372.25 596.42 367.20 597.18
  C 357.65 598.62 348.20 599.90 338.72 601.80
  C 333.44 602.85 327.18 603.31 321.45 604.59
  C 319.79 604.96 318.17 604.61 316.46 605.01
  Q 309.86 606.58 303.09 606.77
  C 300.78 606.84 298.42 607.46 295.81 607.58
  Q 286.52 608.04 278.97 607.85
  C 275.20 607.76 271.27 606.43 267.21 606.10
  A 1.82 1.71 63.9 0 1 266.31 605.76
  Q 264.03 604.12 261.29 603.59
  A 1.81 1.29 -9.6 0 1 260.44 603.18
  L 255.16 598.06
  A 1.47 0.79 -7.7 0 0 254.33 597.75
  Q 254.01 597.72 253.79 597.50
  C 247.80 580.59 280.13 564.38 291.25 558.71
  Q 293.45 558.86 294.50 557.04
  Q 295.84 557.15 296.36 556.15
  A 0.42 0.38 18.6 0 0 296.05 555.59
  C 275.76 551.62 253.83 542.42 238.41 528.31
  Q 237.53 527.50 238.72 527.45
  C 251.91 526.90 269.52 523.99 280.71 516.50
  Z
  M 299.4530 537.7535
  A 1.76 1.76 0.0 0 0 296.9652 537.6754
  L 295.6677 538.8939
  A 1.76 1.76 0.0 0 0 295.5895 541.3816
  L 303.4070 549.7065
  A 1.76 1.76 0.0 0 0 305.8948 549.7846
  L 307.1923 548.5661
  A 1.76 1.76 0.0 0 0 307.2705 546.0784
  L 299.4530 537.7535
  Z"
/>
<path fill="#945800" d="
  M 331.75 516.79
  L 345.91 516.98
  L 335.25 530.21
  L 334.29 530.75
  L 327.50 530.37
  Q 330.41 523.82 331.75 516.79
  Z"
/>
<path fill="#d08701" d="
  M 345.91 516.98
  Q 353.66 516.39 361.79 517.00
  Q 359.54 524.36 354.19 529.94
  Q 353.86 530.27 354.04 530.75
  L 353.75 530.96
  L 353.68 530.81
  A 0.34 0.18 -3.3 0 0 353.40 530.68
  L 335.25 530.21
  L 345.91 516.98
  Z"
/>
<path fill="#be1815" d="
  M 426.96 516.77
  Q 422.66 523.03 422.75 530.75
  L 354.04 530.75
  Q 353.86 530.27 354.19 529.94
  Q 359.54 524.36 361.79 517.00
  L 426.96 516.77
  Z"
/>
<path fill="#db4a12" d="
  M 426.96 516.77
  L 536.25 516.79
  Q 537.49 523.57 537.50 530.46
  L 422.75 530.75
  Q 422.66 523.03 426.96 516.77
  Z"
/>
<path fill="#be1815" d="
  M 536.25 516.79
  C 540.85 517.26 546.78 516.75 549.92 516.74
  Q 596.81 516.58 643.71 517.00
  L 631.75 529.96
  L 630.31 530.86
  Q 589.98 530.66 549.69 530.63
  Q 543.73 530.63 537.79 531.00
  L 537.50 530.46
  Q 537.49 523.57 536.25 516.79
  Z"
/>
<path fill="#d78907" d="
  M 672.50 516.79
  Q 668.94 524.44 663.00 530.46
  L 662.54 530.75
  L 631.75 529.96
  L 643.71 517.00
  L 672.50 516.79
  Z"
/>
<path fill="#a56b00" d="
  M 672.50 516.79
  L 690.50 517.04
  Q 692.54 522.97 693.37 529.19
  A 1.16 0.69 72.5 0 1 693.16 530.10
  L 692.75 530.50
  L 663.00 530.46
  Q 668.94 524.44 672.50 516.79
  Z"
/>
<path fill="#ffc908" d="
  M 744.70 517.78
  C 767.89 524.04 788.23 533.19 805.72 549.53
  Q 806.82 550.56 805.32 550.71
  C 782.76 552.94 760.40 558.45 739.05 565.90
  Q 738.72 566.02 732.40 567.87
  Q 729.02 568.86 725.94 570.54
  C 705.14 578.11 684.70 587.28 663.46 593.50
  C 650.58 596.18 637.26 595.56 626.10 588.20
  C 639.00 567.28 662.08 555.57 682.09 542.79
  C 686.82 539.76 691.39 535.90 692.75 530.50
  Q 707.40 530.52 722.06 530.48
  C 731.40 530.46 736.93 529.23 742.44 522.19
  Q 744.36 519.73 744.70 517.78
  Z"
/>
<path fill="#ffbe17" d="
  M 631.75 529.96
  L 662.54 530.75
  C 647.10 545.75 629.88 557.30 615.25 573.03
  C 596.47 596.59 598.49 617.37 611.20 643.81
  Q 617.05 655.99 623.99 672.79
  Q 624.39 673.74 625.00 673.54
  Q 624.73 674.81 625.02 675.49
  Q 628.53 683.88 628.04 693.00
  Q 627.01 695.78 627.50 698.71
  Q 627.43 698.77 627.18 698.74
  A 0.40 0.37 12.9 0 0 626.76 698.98
  C 623.23 708.73 615.73 713.05 605.38 712.96
  Q 589.18 712.81 578.57 699.62
  Q 576.54 696.29 574.40 692.84
  Q 574.10 692.36 573.54 692.50
  Q 569.31 682.63 563.30 673.66
  C 549.72 658.66 528.98 657.95 512.93 654.36
  Q 488.91 648.99 470.56 632.68
  C 454.15 618.11 440.20 602.33 416.27 598.23
  C 402.29 595.83 384.84 596.34 369.97 598.35
  C 347.07 601.45 322.14 606.00 302.93 608.37
  C 289.78 609.99 261.62 612.56 253.79 598.25
  L 253.79 597.50
  Q 254.01 597.72 254.33 597.75
  A 1.47 0.79 -7.7 0 1 255.16 598.06
  L 260.44 603.18
  A 1.81 1.29 -9.6 0 0 261.29 603.59
  Q 264.03 604.12 266.31 605.76
  A 1.82 1.71 63.9 0 0 267.21 606.10
  C 271.27 606.43 275.20 607.76 278.97 607.85
  Q 286.52 608.04 295.81 607.58
  C 298.42 607.46 300.78 606.84 303.09 606.77
  Q 309.86 606.58 316.46 605.01
  C 318.17 604.61 319.79 604.96 321.45 604.59
  C 327.18 603.31 333.44 602.85 338.72 601.80
  C 348.20 599.90 357.65 598.62 367.20 597.18
  C 372.25 596.42 378.73 596.46 384.63 595.35
  C 392.10 593.95 400.42 595.08 409.00 595.99
  Q 420.46 597.21 429.43 600.04
  C 430.92 600.50 433.20 600.43 434.93 601.86
  Q 435.33 602.18 435.80 602.27
  Q 439.01 602.86 441.28 605.23
  C 442.08 606.06 443.59 606.53 444.69 607.51
  Q 447.82 610.31 451.54 612.26
  A 1.76 1.47 85.4 0 1 452.21 612.94
  L 452.54 613.55
  A 1.49 1.25 1.1 0 0 453.24 614.16
  Q 456.63 615.59 459.30 618.08
  A 0.33 0.30 -58.3 0 0 459.80 617.94
  Q 460.09 617.29 460.71 617.88
  A 1.03 0.83 57.4 0 0 461.54 618.16
  L 463.44 617.79
  A 0.85 0.72 -85.8 0 0 464.02 617.20
  C 464.44 615.67 465.21 617.72 466.06 617.81
  Q 466.65 617.87 466.22 617.38
  C 464.79 615.72 463.95 614.18 462.26 612.53
  Q 460.87 611.17 460.14 609.48
  C 472.70 619.87 485.18 635.21 501.87 638.64
  C 511.16 640.54 520.56 638.94 529.68 637.98
  C 544.95 636.38 562.65 639.19 575.54 647.80
  Q 580.38 651.03 582.69 654.31
  Q 589.54 664.07 596.69 673.59
  Q 598.59 676.12 601.24 677.65
  Q 604.04 679.26 604.00 676.03
  C 603.96 673.17 603.42 670.58 602.02 667.90
  C 596.15 656.66 588.29 643.39 584.50 629.47
  C 577.72 604.52 584.03 582.01 600.26 562.26
  Q 612.35 547.55 630.31 530.86
  L 631.75 529.96
  Z"
/>
<path fill="#d78907" d="
  M 327.50 530.37
  L 334.29 530.75
  C 334.19 532.45 322.60 540.48 320.62 541.89
  Q 320.18 542.20 320.10 541.90
  A 0.79 0.44 -44.3 0 1 320.27 541.34
  C 322.58 538.23 323.84 534.72 326.49 531.76
  A 0.78 0.54 -37.4 0 0 326.70 531.12
  Q 326.64 530.93 326.50 530.79
  L 327.50 530.37
  Z"
/>
<path fill="#fd3127" d="
  M 422.75 530.75
  L 422.79 534.00
  Q 421.98 542.53 422.48 544.99
  C 431.27 588.24 479.20 605.58 514.55 580.80
  Q 536.03 565.74 537.60 538.58
  Q 537.02 534.69 537.79 531.00
  Q 543.73 530.63 549.69 530.63
  Q 589.98 530.66 630.31 530.86
  Q 612.35 547.55 600.26 562.26
  C 584.03 582.01 577.72 604.52 584.50 629.47
  C 588.29 643.39 596.15 656.66 602.02 667.90
  C 603.42 670.58 603.96 673.17 604.00 676.03
  Q 604.04 679.26 601.24 677.65
  Q 598.59 676.12 596.69 673.59
  Q 589.54 664.07 582.69 654.31
  Q 580.38 651.03 575.54 647.80
  C 562.65 639.19 544.95 636.38 529.68 637.98
  C 520.56 638.94 511.16 640.54 501.87 638.64
  C 485.18 635.21 472.70 619.87 460.14 609.48
  Q 428.37 576.86 382.31 579.12
  C 361.83 580.13 339.88 585.33 319.87 590.20
  C 309.83 592.64 273.98 602.64 266.58 596.06
  C 260.42 590.58 268.76 583.02 273.99 579.72
  Q 278.30 577.00 289.31 572.32
  C 312.61 562.42 336.44 549.85 353.75 530.96
  L 354.04 530.75
  L 422.75 530.75
  Z
  M 343.5220 581.3571
  A 2.65 2.65 0.0 0 0 341.6030 578.1380
  L 331.6371 575.6163
  A 2.65 2.65 0.0 0 0 328.4180 577.5352
  L 328.1580 578.5629
  A 2.65 2.65 0.0 0 0 330.0770 581.7820
  L 340.0429 584.3037
  A 2.65 2.65 0.0 0 0 343.2620 582.3848
  L 343.5220 581.3571
  Z"
/>
<path fill="#ff791f" d="
  M 537.50 530.46
  L 537.79 531.00
  Q 537.02 534.69 537.60 538.58
  Q 535.91 546.38 532.47 553.37
  C 508.12 602.96 424.88 594.48 422.79 534.00
  L 422.75 530.75
  L 537.50 530.46
  Z"
/>
<path fill="#c38500" d="
  M 663.00 530.46
  L 692.75 530.50
  C 691.39 535.90 686.82 539.76 682.09 542.79
  C 662.08 555.57 639.00 567.28 626.10 588.20
  Q 618.49 582.90 615.25 573.03
  C 629.88 557.30 647.10 545.75 662.54 530.75
  L 663.00 530.46
  Z"
/>
<path fill="#c02218" d="
  M 422.79 534.00
  C 424.88 594.48 508.12 602.96 532.47 553.37
  Q 535.91 546.38 537.60 538.58
  Q 536.03 565.74 514.55 580.80
  C 479.20 605.58 431.27 588.24 422.48 544.99
  Q 421.98 542.53 422.79 534.00
  Z"
/>
<rect fill="#fde492" x="-2.65" y="-7.47" transform="translate(301.43,543.73) rotate(-43.2)" width="5.30" height="14.94" rx="1.76"/>
<path fill="#fa451c" d="
  M 205.49 575.50
  C 201.21 571.81 201.93 568.03 203.87 562.88
  Q 207.00 554.54 210.36 546.48
  Q 210.88 545.25 211.16 546.55
  Q 213.25 556.00 215.13 565.48
  Q 216.06 570.18 215.69 572.03
  C 214.83 576.36 209.16 578.68 205.49 575.50
  Z"
/>
<path fill="#fde492" d="
  M 294.50 557.04
  Q 293.45 558.86 291.25 558.71
  Q 292.51 557.13 294.50 557.04
  Z"
/>
<path fill="#540c1f" d="
  M 725.94 570.54
  C 753.50 577.92 792.16 605.23 771.66 638.68
  C 759.45 658.61 736.40 667.77 715.23 673.74
  Q 703.00 674.17 690.77 673.18
  Q 660.43 671.72 630.36 672.46
  A 0.69 0.69 87.4 0 1 629.66 671.82
  Q 629.13 665.49 627.65 659.36
  C 625.84 651.82 621.44 643.03 618.88 635.09
  Q 615.49 624.56 617.37 613.27
  L 661.54 661.34
  A 1.67 1.66 -43.3 0 0 663.92 661.40
  Q 702.65 623.78 741.31 585.81
  Q 743.28 583.86 744.80 581.53
  A 1.27 1.13 -60.0 0 0 744.44 579.78
  Q 740.31 577.76 736.01 576.02
  C 732.51 574.60 730.77 576.04 727.71 576.80
  Q 720.92 578.50 714.44 581.10
  C 702.29 585.98 690.10 590.26 677.97 595.00
  C 668.10 598.87 658.69 600.42 648.03 599.10
  Q 642.77 598.45 637.51 598.14
  Q 637.12 598.11 636.61 597.81
  L 632.00 595.04
  Q 633.83 595.21 635.48 595.90
  C 638.97 597.35 640.54 596.47 643.69 597.06
  Q 653.00 598.83 661.97 595.53
  A 1.03 0.77 -88.7 0 0 662.50 594.85
  Q 662.70 594.07 663.46 593.50
  C 684.70 587.28 705.14 578.11 725.94 570.54
  Z"
/>
<path fill="#4a0819" d="
  M 615.25 573.03
  Q 618.49 582.90 626.10 588.20
  C 637.26 595.56 650.58 596.18 663.46 593.50
  Q 662.70 594.07 662.50 594.85
  A 1.03 0.77 -88.7 0 1 661.97 595.53
  Q 653.00 598.83 643.69 597.06
  C 640.54 596.47 638.97 597.35 635.48 595.90
  Q 633.83 595.21 632.00 595.04
  L 627.14 592.71
  Q 625.23 591.80 624.25 593.03
  Q 617.13 601.95 617.37 613.27
  Q 615.49 624.56 618.88 635.09
  C 621.44 643.03 625.84 651.82 627.65 659.36
  Q 629.13 665.49 629.66 671.82
  A 0.69 0.69 87.4 0 0 630.36 672.46
  Q 660.43 671.72 690.77 673.18
  L 625.00 673.54
  Q 624.39 673.74 623.99 672.79
  Q 617.05 655.99 611.20 643.81
  C 598.49 617.37 596.47 596.59 615.25 573.03
  Z"
/>
<path fill="#620e26" d="
  M 617.37 613.27
  Q 617.13 601.95 624.25 593.03
  Q 625.23 591.80 627.14 592.71
  L 632.00 595.04
  L 636.61 597.81
  Q 637.12 598.11 637.51 598.14
  Q 642.77 598.45 648.03 599.10
  C 658.69 600.42 668.10 598.87 677.97 595.00
  C 690.10 590.26 702.29 585.98 714.44 581.10
  Q 720.92 578.50 727.71 576.80
  C 730.77 576.04 732.51 574.60 736.01 576.02
  Q 740.31 577.76 744.44 579.78
  A 1.27 1.13 -60.0 0 1 744.80 581.53
  Q 743.28 583.86 741.31 585.81
  Q 702.65 623.78 663.92 661.40
  A 1.67 1.66 -43.3 0 1 661.54 661.34
  L 617.37 613.27
  Z"
/>
<rect fill="#fefefe" x="-7.79" y="-3.18" transform="translate(335.84,579.96) rotate(14.2)" width="15.58" height="6.36" rx="2.65"/>
<path fill="#fa3d1f" d="
  M 835.74 622.99
  C 838.36 638.60 814.64 634.33 820.58 619.13
  Q 825.31 607.01 830.50 595.01
  Q 830.79 594.35 830.91 595.06
  Q 833.39 609.02 835.74 622.99
  Z"
/>
<path fill="#4e0a1c" d="
  M 563.30 673.66
  L 478.00 673.46
  C 481.40 665.42 483.31 661.02 489.03 656.77
  A 0.50 0.50 -51.1 0 0 488.94 655.91
  C 475.96 650.08 466.19 640.04 455.34 631.16
  C 424.31 605.78 379.09 606.79 341.75 610.21
  Q 330.81 610.68 317.31 612.31
  Q 296.23 614.87 274.00 613.21
  L 269.52 612.98
  A 1.35 0.91 -13.1 0 1 268.68 612.66
  Q 266.56 610.56 263.73 609.68
  A 1.45 1.04 33.7 0 0 262.77 609.71
  L 261.74 610.21
  A 1.18 0.81 -39.1 0 1 260.86 610.28
  L 256.51 608.39
  A 1.07 0.79 -89.6 0 1 256.00 607.69
  Q 255.78 606.65 254.73 606.36
  A 0.69 0.63 6.6 0 1 254.23 605.78
  Q 254.09 603.10 251.50 602.71
  L 253.79 598.25
  C 261.62 612.56 289.78 609.99 302.93 608.37
  C 322.14 606.00 347.07 601.45 369.97 598.35
  C 384.84 596.34 402.29 595.83 416.27 598.23
  C 440.20 602.33 454.15 618.11 470.56 632.68
  Q 488.91 648.99 512.93 654.36
  C 528.98 657.95 549.72 658.66 563.30 673.66
  Z"
/>
<path fill="#651029" d="
  M 251.50 602.71
  Q 254.09 603.10 254.23 605.78
  A 0.69 0.63 6.6 0 0 254.73 606.36
  Q 255.78 606.65 256.00 607.69
  A 1.07 0.79 -89.6 0 0 256.51 608.39
  L 260.86 610.28
  A 1.18 0.81 -39.1 0 0 261.74 610.21
  L 262.77 609.71
  A 1.45 1.04 33.7 0 1 263.73 609.68
  Q 266.56 610.56 268.68 612.66
  A 1.35 0.91 -13.1 0 0 269.52 612.98
  L 274.00 613.21
  C 267.92 613.66 261.35 613.36 255.61 611.22
  Q 253.90 610.59 252.18 611.46
  A 1.18 1.10 86.0 0 0 251.59 612.19
  Q 249.68 618.98 254.08 623.67
  Q 269.34 639.96 296.26 666.09
  A 0.67 0.34 36.2 0 1 296.50 666.56
  L 296.47 666.83
  A 0.82 0.37 -77.7 0 0 296.62 667.55
  L 303.27 671.94
  C 275.42 664.43 233.17 638.10 251.50 602.71
  Z"
/>
<path fill="#620e26" d="
  M 478.00 673.46
  Q 477.88 673.50 477.81 673.49
  L 408.50 673.54
  L 406.00 673.54
  L 373.50 673.27
  Q 385.73 671.30 400.68 672.87
  Q 402.30 673.04 402.45 671.54
  A 1.20 0.98 30.0 0 0 402.12 670.67
  Q 362.72 629.48 346.84 613.17
  Q 344.93 611.21 341.75 610.21
  C 379.09 606.79 424.31 605.78 455.34 631.16
  C 466.19 640.04 475.96 650.08 488.94 655.91
  A 0.50 0.50 -51.1 0 1 489.03 656.77
  C 483.31 661.02 481.40 665.42 478.00 673.46
  Z"
/>
<path fill="#711730" d="
  M 341.75 610.21
  Q 344.93 611.21 346.84 613.17
  Q 362.72 629.48 402.12 670.67
  A 1.20 0.98 30.0 0 1 402.45 671.54
  Q 402.30 673.04 400.68 672.87
  Q 385.73 671.30 373.50 673.27
  L 310.80 673.37
  L 305.04 672.75
  L 303.27 671.94
  L 296.62 667.55
  A 0.82 0.37 -77.7 0 1 296.47 666.83
  L 296.50 666.56
  A 0.67 0.34 36.2 0 0 296.26 666.09
  Q 269.34 639.96 254.08 623.67
  Q 249.68 618.98 251.59 612.19
  A 1.18 1.10 86.0 0 1 252.18 611.46
  Q 253.90 610.59 255.61 611.22
  C 261.35 613.36 267.92 613.66 274.00 613.21
  Q 296.23 614.87 317.31 612.31
  Q 330.81 610.68 341.75 610.21
  Z"
/>
<path fill="#ff5623" d="
  M 203.44 673.56
  C 198.11 669.47 196.93 664.63 194.64 656.98
  Q 189.99 641.44 185.83 625.85
  Q 185.48 624.57 186.60 625.28
  Q 204.24 636.60 221.71 648.02
  Q 223.54 649.21 225.81 652.18
  C 237.32 667.17 217.58 684.42 203.44 673.56
  Z"
/>
<path fill="#d6ce3a" d="
  M 305.04 672.75
  L 310.80 673.37
  L 313.44 690.94
  A 1.27 1.09 16.7 0 0 313.94 691.72
  Q 316.31 693.40 316.96 696.25
  L 315.25 693.69
  A 1.10 0.79 69.2 0 0 314.51 693.20
  L 305.25 692.71
  L 306.36 691.13
  A 1.37 1.14 -35.1 0 0 306.60 690.24
  Q 305.57 682.74 306.43 675.25
  Q 306.63 673.55 304.96 673.25
  L 305.04 672.75
  Z"
/>
<path fill="#c7c227" d="
  M 304.96 673.25
  Q 306.63 673.55 306.43 675.25
  Q 305.57 682.74 306.60 690.24
  A 1.37 1.14 -35.1 0 1 306.36 691.13
  L 305.25 692.71
  L 270.21 692.75
  C 275.80 679.46 291.32 673.33 304.96 673.25
  Z"
/>
<path fill="#ffc41e" d="
  M 373.50 673.27
  L 406.00 673.54
  C 411.76 677.86 419.31 683.93 419.29 692.50
  Q 418.02 695.68 418.79 699.00
  C 405.26 729.45 365.39 733.37 339.19 717.88
  C 335.32 715.60 331.21 712.19 327.29 709.25
  L 317.61 698.65
  L 316.96 696.25
  Q 316.31 693.40 313.94 691.72
  A 1.27 1.09 16.7 0 1 313.44 690.94
  L 310.80 673.37
  L 373.50 673.27
  Z"
/>
<path fill="#877814" d="
  M 406.00 673.54
  L 408.50 673.54
  Q 408.01 674.02 408.59 674.40
  C 410.96 675.98 430.86 690.77 429.75 692.71
  L 419.29 692.50
  C 419.31 683.93 411.76 677.86 406.00 673.54
  Z"
/>
<path fill="#a4a028" d="
  M 408.50 673.54
  L 477.81 673.49
  Q 478.77 674.99 479.61 676.49
  Q 480.53 678.12 481.87 679.08
  C 494.19 687.94 506.83 689.36 522.56 689.55
  Q 523.27 689.55 524.27 689.78
  C 528.37 690.70 532.89 690.43 537.08 690.81
  C 539.75 691.06 542.15 692.30 545.94 691.97
  Q 555.22 691.15 570.30 691.92
  C 570.76 691.95 571.53 692.31 572.00 692.46
  C 563.28 692.73 554.18 693.47 545.50 692.67
  Q 543.04 692.45 540.72 693.54
  Q 531.85 692.81 529.19 692.81
  Q 479.97 692.80 430.75 692.79
  L 429.75 692.71
  C 430.86 690.77 410.96 675.98 408.59 674.40
  Q 408.01 674.02 408.50 673.54
  Z"
/>
<path fill="#928d25" d="
  M 477.81 673.49
  Q 477.88 673.50 478.00 673.46
  L 563.30 673.66
  Q 569.31 682.63 573.54 692.50
  L 572.00 692.46
  C 571.53 692.31 570.76 691.95 570.30 691.92
  Q 555.22 691.15 545.94 691.97
  C 542.15 692.30 539.75 691.06 537.08 690.81
  C 532.89 690.43 528.37 690.70 524.27 689.78
  Q 523.27 689.55 522.56 689.55
  C 506.83 689.36 494.19 687.94 481.87 679.08
  Q 480.53 678.12 479.61 676.49
  Q 478.77 674.99 477.81 673.49
  Z"
/>
<path fill="#bdbd2a" d="
  M 690.77 673.18
  Q 703.00 674.17 715.23 673.74
  Q 726.61 672.26 738.19 676.57
  Q 750.42 681.12 755.25 692.46
  C 720.44 692.75 685.61 692.48 650.81 693.08
  Q 639.43 693.27 628.04 693.00
  Q 628.53 683.88 625.02 675.49
  Q 624.73 674.81 625.00 673.54
  L 690.77 673.18
  Z"
/>
<path fill="#ffac3e" d="
  M 828.26 696.75
  C 827.01 710.78 808.65 702.54 816.68 692.42
  Q 820.26 687.93 828.76 679.80
  Q 829.11 679.46 829.11 679.96
  Q 829.00 688.49 828.26 696.75
  Z"
/>
<path fill="#fee2af" d="
  M 305.25 692.71
  L 314.51 693.20
  A 1.10 0.79 69.2 0 1 315.25 693.69
  L 316.96 696.25
  L 317.61 698.65
  Q 317.91 699.12 317.64 699.45
  A 1.12 0.62 13.2 0 1 316.75 699.70
  Q 302.78 698.38 288.75 699.21
  Q 280.00 699.13 271.25 699.45
  Q 269.30 699.52 268.79 701.25
  Q 268.94 696.91 270.21 692.75
  L 305.25 692.71
  Z"
/>
<path fill="#ffba7a" d="
  M 419.29 692.50
  L 429.75 692.71
  L 430.75 692.79
  L 434.53 698.06
  A 1.45 0.44 60.2 0 0 435.21 698.70
  L 436.00 698.96
  L 435.50 699.04
  L 418.79 699.00
  Q 418.02 695.68 419.29 692.50
  Z"
/>
<path fill="#ffba7a" d="
  M 572.00 692.46
  L 573.54 692.50
  Q 574.10 692.36 574.40 692.84
  Q 576.54 696.29 578.57 699.62
  Q 567.10 698.95 555.39 699.28
  L 552.10 698.72
  Q 547.07 695.04 540.72 693.54
  Q 543.04 692.45 545.50 692.67
  C 554.18 693.47 563.28 692.73 572.00 692.46
  Z"
/>
<path fill="#ffe8b0" d="
  M 755.25 692.46
  Q 757.29 696.50 756.46 701.00
  Q 755.01 699.25 753.57 699.26
  C 711.84 699.32 670.01 699.65 628.29 699.00
  L 627.50 698.71
  Q 627.01 695.78 628.04 693.00
  Q 639.43 693.27 650.81 693.08
  C 685.61 692.48 720.44 692.75 755.25 692.46
  Z"
/>
<path fill="#ffe8b0" d="
  M 430.75 692.79
  Q 479.97 692.80 529.19 692.81
  Q 531.85 692.81 540.72 693.54
  Q 547.07 695.04 552.10 698.72
  Q 532.88 699.24 513.81 699.15
  C 487.87 699.03 461.95 699.44 436.00 698.96
  L 435.21 698.70
  A 1.45 0.44 60.2 0 1 434.53 698.06
  L 430.75 692.79
  Z"
/>
<path fill="#ffac3e" d="
  M 317.61 698.65
  L 327.29 709.25
  Q 329.62 711.70 328.17 715.78
  Q 319.66 708.40 313.63 701.87
  Q 311.24 699.28 307.69 699.27
  L 288.75 699.21
  Q 302.78 698.38 316.75 699.70
  A 1.12 0.62 13.2 0 0 317.64 699.45
  Q 317.91 699.12 317.61 698.65
  Z"
/>
<path fill="#ff7f34" d="
  M 552.10 698.72
  L 555.39 699.28
  Q 562.60 705.59 563.82 707.18
  C 569.05 713.96 574.81 722.27 580.41 727.33
  C 591.50 737.36 606.17 740.51 620.93 738.50
  C 647.08 734.94 638.88 714.34 628.42 700.05
  A 1.04 0.85 -64.8 0 1 628.25 699.37
  L 628.29 699.00
  C 670.01 699.65 711.84 699.32 753.57 699.26
  Q 755.01 699.25 756.46 701.00
  Q 757.78 707.42 755.40 713.62
  C 745.75 738.78 712.98 749.60 689.06 751.23
  Q 685.84 751.45 669.05 751.46
  Q 508.43 751.56 347.81 751.47
  Q 334.56 751.46 327.87 750.49
  C 304.81 747.15 265.30 730.96 268.79 701.25
  Q 269.30 699.52 271.25 699.45
  Q 280.00 699.13 288.75 699.21
  L 307.69 699.27
  Q 311.24 699.28 313.63 701.87
  Q 319.66 708.40 328.17 715.78
  Q 335.79 727.58 349.45 735.01
  Q 368.41 745.34 388.75 744.34
  C 406.63 743.46 438.50 732.61 438.20 709.79
  C 438.15 706.27 436.63 702.54 435.50 699.04
  L 436.00 698.96
  C 461.95 699.44 487.87 699.03 513.81 699.15
  Q 532.88 699.24 552.10 698.72
  Z"
/>
<path fill="#d45b1f" d="
  M 627.50 698.71
  L 628.29 699.00
  L 628.25 699.37
  A 1.04 0.85 -64.8 0 0 628.42 700.05
  C 638.88 714.34 647.08 734.94 620.93 738.50
  C 606.17 740.51 591.50 737.36 580.41 727.33
  C 574.81 722.27 569.05 713.96 563.82 707.18
  Q 562.60 705.59 555.39 699.28
  Q 567.10 698.95 578.57 699.62
  Q 589.18 712.81 605.38 712.96
  C 615.73 713.05 623.23 708.73 626.76 698.98
  A 0.40 0.37 12.9 0 1 627.18 698.74
  Q 627.43 698.77 627.50 698.71
  Z"
/>
<path fill="#d45b1f" d="
  M 418.79 699.00
  L 435.50 699.04
  C 436.63 702.54 438.15 706.27 438.20 709.79
  C 438.50 732.61 406.63 743.46 388.75 744.34
  Q 368.41 745.34 349.45 735.01
  Q 335.79 727.58 328.17 715.78
  Q 329.62 711.70 327.29 709.25
  C 331.21 712.19 335.32 715.60 339.19 717.88
  C 365.39 733.37 405.26 729.45 418.79 699.00
  Z"
/>
<path fill="#ffac3e" d="
  M 228.66 729.57
  C 226.21 726.95 226.97 721.79 228.30 718.92
  A 0.47 0.47 26.5 0 1 228.96 718.70
  C 232.03 720.42 235.65 724.32 234.92 728.12
  C 234.30 731.32 230.75 731.81 228.66 729.57
  Z"
/>
<path fill="#b6b6b7" d="
  M 256.44 849.53
  C 245.33 847.80 209.95 842.10 204.00 832.46
  C 192.79 814.33 308.41 804.72 317.27 803.96
  Q 400.33 796.84 483.69 796.03
  C 562.32 795.27 640.45 796.65 718.93 801.89
  C 755.71 804.34 792.67 807.84 828.94 814.58
  C 842.13 817.03 856.69 820.12 868.44 826.83
  Q 870.32 827.91 871.53 829.71
  C 885.93 851.22 715.64 861.22 704.24 861.87
  C 583.71 868.67 467.82 868.61 349.93 860.15
  Q 302.96 856.79 256.44 849.53
  Z"
/>
</svg>
